<svg width="40" height="40" viewBox="0 0 40 40" fill="none" xmlns="http://www.w3.org/2000/svg">
<g id="Flag">
<path id="Vector" fill-rule="evenodd" clip-rule="evenodd" d="M30.1389 6.77273C30.5556 6.36364 31.1111 6.22727 31.6667 6.5C32.2222 6.77273 32.5 7.18182 32.5 7.72727V24.0909C32.5 24.5 32.3611 24.7727 32.0833 25.0455C31.8056 25.3182 30 26.8182 25.5556 26.8182C23.3802 26.8182 21.5585 26.1236 19.8732 25.4811C19.7293 25.4263 19.5865 25.3718 19.4444 25.3182C19.1248 25.2136 18.8103 25.1039 18.4979 24.9951C17.1815 24.5363 15.9037 24.0909 14.4444 24.0909C12.2222 24.0909 10.8333 24.5 10.2778 24.7727V33.6364C10.2778 34.4545 9.72222 35 8.88889 35C8.05556 35 7.5 34.4545 7.5 33.6364V7.72727C7.5 7.31818 7.63889 7.04545 7.91667 6.77273C8.19444 6.5 10 5 14.4444 5C16.8056 5 18.75 5.68182 20.5556 6.5C20.8752 6.60461 21.1897 6.71424 21.5021 6.82311C22.8185 7.28191 24.0963 7.72727 25.5556 7.72727C28.8889 7.72727 30.1389 6.77273 30.1389 6.77273Z" fill="white"/>
</g>
</svg>
