<svg width="24" height="24" viewBox="0 0 24 24" fill="none" xmlns="http://www.w3.org/2000/svg">
<path d="M11.1976 3C10.9051 3 10.6201 3.0225 10.3426 3.09C10.1251 3.1425 9.88513 3.2175 9.63013 3.3225C8.72262 3.6975 8.15262 4.2375 7.89762 4.5075C7.02012 5.4075 6.42762 6.6225 6.17262 8.0175L5.32512 12.69C5.16762 13.575 4.85262 13.785 4.38012 14.0925L4.21512 14.1975C3.97512 14.355 3.69762 14.5275 3.45012 14.82C3.32262 14.97 3.21012 15.15 3.13512 15.345C2.61012 16.6275 3.69012 18.0225 5.07762 18.0225H8.08512C8.20512 18.0225 8.30262 18.1125 8.32512 18.2325C8.58012 19.8075 9.94513 21 11.5726 21C13.2001 21 14.5651 19.8075 14.8201 18.2325C14.8426 18.1125 14.9326 18.0225 15.0601 18.0225H18.0676C19.4551 18.0225 20.5351 16.6275 20.0101 15.345C19.9276 15.15 19.8226 14.9775 19.6951 14.82C19.4476 14.5275 19.1701 14.3475 18.9301 14.1975L18.7651 14.0925C18.2926 13.785 17.9851 13.5825 17.8201 12.69L16.9726 8.0175C16.7176 6.6225 16.1251 5.4075 15.2476 4.5075C14.9851 4.2375 14.4226 3.6975 13.5151 3.3225C13.5151 3.3225 13.5076 3.3225 13.5001 3.3225C12.9226 3.09 12.3076 3 11.6926 3H11.1976Z" fill="#45EBFA"/>
</svg>
