<svg width="24" height="24" viewBox="0 0 24 24" fill="none" xmlns="http://www.w3.org/2000/svg">
<path d="M8 21.3333H5C4.20459 21.3325 3.44199 21.003 2.87956 20.4171C2.31712 19.8313 2.00079 19.0369 2 18.2083V16.125C2.00079 15.2965 2.31712 14.5021 2.87956 13.9162C3.44199 13.3303 4.20459 13.0008 5 13H8C8.26504 13 8.51925 13.1096 8.70675 13.3047C8.89426 13.4999 8.99973 13.7645 9 14.0406V20.2917C9 20.5678 8.89478 20.8325 8.70746 21.0279C8.52014 21.2232 8.26604 21.3331 8.001 21.3333H8ZM19 21.3333H16C15.735 21.3333 15.4808 21.2237 15.2932 21.0286C15.1057 20.8335 15.0003 20.5688 15 20.2927V14.0417C15 13.7656 15.1052 13.5008 15.2925 13.3055C15.4799 13.1101 15.734 13.0003 15.999 13H19C19.7954 13.0008 20.558 13.3303 21.1204 13.9162C21.6829 14.5021 21.9992 15.2965 22 16.125V18.2083C21.9992 19.0369 21.6829 19.8313 21.1204 20.4171C20.558 21.003 19.7954 21.3325 19 21.3333Z" fill="#00C2CB"/>
<path d="M18.25 10.8547V12.8184H19.2916C19.6593 12.8184 20.0062 12.89 20.3333 13V10.8547C20.3333 8.7715 19.4553 6.77362 17.8925 5.30059C16.3297 3.82755 14.2101 3 12 3C9.78982 3 7.67021 3.82755 6.1074 5.30059C4.5446 6.77362 3.66663 8.7715 3.66663 10.8547V13C4.00022 12.8836 4.35259 12.8221 4.70829 12.8184H5.74996V10.8547C5.74996 9.29229 6.40844 7.79389 7.58054 6.68911C8.75264 5.58433 10.3424 4.96367 12 4.96367C13.6576 4.96367 15.2473 5.58433 16.4194 6.68911C17.5915 7.79389 18.25 9.29229 18.25 10.8547Z" fill="#45EBFA"/>
</svg>
