<svg width="24" height="24" viewBox="0 0 24 24" fill="none" xmlns="http://www.w3.org/2000/svg">
<path opacity="0.35" d="M18 21H6C4.343 21 3 19.657 3 18V6C3 4.343 4.343 3 6 3H18C19.657 3 21 4.343 21 6V18C21 19.657 19.657 21 18 21Z" fill="#EF1AB3"/>
<path d="M21 14.998V17.998C21 19.655 19.657 20.998 18 20.998H6C4.343 20.998 3 19.655 3 17.998V14.998H7.342C8.143 14.998 8.924 15.429 9.235 16.167C9.69 17.244 10.755 17.998 12 17.998C13.245 17.998 14.31 17.244 14.765 16.167C15.076 15.429 15.856 14.998 16.658 14.998H21Z" fill="#EF1AB3"/>
</svg>
