<svg width="24" height="24" viewBox="0 0 24 24" fill="none" xmlns="http://www.w3.org/2000/svg">
<path d="M7.49858 12.0029C5.01409 12.0029 3 14.0169 3 16.5014C3 18.9859 5.01409 21 7.49858 21C9.98307 21 11.9972 18.9859 11.9972 16.5014C11.9972 14.0169 9.98307 12.0029 7.49858 12.0029ZM6.22572 18.6719C5.72883 18.6719 5.32601 18.2691 5.32601 17.7722C5.32601 17.2753 5.72883 16.8725 6.22572 16.8725C6.72262 16.8725 7.12544 17.2753 7.12544 17.7722C7.12484 18.2689 6.72237 18.6713 6.22572 18.6719Z" fill="#45EBFA"/>
<path d="M20.0956 5.17628L20.7304 4.54144C21.0848 4.1933 21.09 3.62371 20.7418 3.26924C20.3937 2.91477 19.8241 2.90965 19.4696 3.25779C19.4658 3.26158 19.462 3.26539 19.4582 3.26924L9.97607 12.7513C10.4812 13.0857 10.9139 13.5183 11.2484 14.0234L16.2787 8.99315L18.1859 10.901C18.5372 11.2523 19.1068 11.2523 19.4582 10.901C19.8095 10.5497 19.8095 9.98006 19.4582 9.62874L17.551 7.7209L18.8233 6.44854L19.4581 7.08335C19.8106 7.43351 20.3802 7.43162 20.7304 7.07914C21.0789 6.72829 21.0789 6.16192 20.7304 5.81108L20.0956 5.17628Z" fill="#00C2CB"/>
</svg>
