<svg width="24" height="24" viewBox="0 0 24 24" fill="none" xmlns="http://www.w3.org/2000/svg">
<path opacity="0.35" d="M10.4995 1.99746C5.80551 1.99746 1.99951 5.80346 1.99951 10.4975C1.99951 11.8505 2.32351 13.1245 2.88651 14.2605L2.03251 17.6765C1.83751 18.4545 2.54251 19.1595 3.32051 18.9645L6.73651 18.1105C7.87251 18.6735 9.14651 18.9975 10.4995 18.9975C15.1935 18.9975 18.9995 15.1915 18.9995 10.4975C18.9995 5.80346 15.1935 1.99746 10.4995 1.99746Z" fill="#F2AAE4"/>
<path d="M20.6965 15.5955L21.9675 20.6775C22.1625 21.4555 21.4575 22.1605 20.6795 21.9655L15.5975 20.6945L20.6965 15.5955Z" fill="#EF1AB3"/>
<path d="M17.8138 6.18663C18.5628 7.45163 18.9998 8.92363 18.9998 10.5006C18.9998 15.1946 15.1938 19.0006 10.4998 19.0006C8.92279 19.0006 7.45079 18.5636 6.18579 17.8146C7.66479 20.3176 10.3828 22.0006 13.4998 22.0006C18.1938 22.0006 21.9998 18.1946 21.9998 13.5006C21.9998 10.3836 20.3168 7.66563 17.8138 6.18663Z" fill="#EF1AB3"/>
</svg>
