<svg width="24" height="24" viewBox="0 0 24 24" fill="none" xmlns="http://www.w3.org/2000/svg">
<path d="M12 22C17.5228 22 22 17.5228 22 12C22 6.47715 17.5228 2 12 2C6.47715 2 2 6.47715 2 12C2 17.5228 6.47715 22 12 22Z" fill="#45EBFA"/>
<path d="M14.6666 10.3339C14.6668 9.67353 14.4384 9.03152 14.0167 8.50749C13.595 7.98347 13.0036 7.60671 12.3344 7.43568C11.6651 7.26464 10.9553 7.30889 10.3151 7.56155C9.67494 7.81421 9.14012 8.26116 8.79363 8.83307C8.66334 9.06193 8.63185 9.3302 8.70586 9.58084C8.77987 9.83148 8.95354 10.0447 9.18994 10.1752C9.42634 10.3057 9.70683 10.3432 9.97176 10.2796C10.2367 10.2161 10.4652 10.0566 10.6086 9.83498C10.7005 9.68289 10.8328 9.55652 10.9922 9.46858C11.1515 9.38065 11.3324 9.33424 11.5165 9.33403C11.7007 9.33382 11.8816 9.3798 12.0412 9.46737C12.2008 9.55494 12.3334 9.681 12.4257 9.83288C12.518 9.98477 12.5667 10.1571 12.5669 10.3326C12.5672 10.5081 12.5189 10.6806 12.4271 10.8327C12.3352 10.9849 12.2029 11.1112 12.0436 11.1992C11.8842 11.2872 11.7034 11.3336 11.5193 11.3339C11.241 11.3339 10.9742 11.4392 10.7774 11.6267C10.5807 11.8142 10.4701 12.0686 10.4701 12.3338V13.3337C10.4701 13.5989 10.5807 13.8532 10.7774 14.0407C10.9742 14.2282 11.241 14.3336 11.5193 14.3336C11.7975 14.3336 12.0643 14.2282 12.2611 14.0407C12.4578 13.8532 12.5684 13.5989 12.5684 13.3337V13.1497C13.1803 12.9443 13.7106 12.5633 14.0863 12.0591C14.462 11.555 14.6647 10.9523 14.6666 10.3339ZM11.5193 17.3333C11.3822 17.3318 11.2467 17.3046 11.1206 17.2533C10.9934 17.2028 10.8763 17.1317 10.7744 17.0434C10.6819 16.946 10.6074 16.8345 10.5541 16.7134C10.495 16.5948 10.4663 16.4646 10.4701 16.3334C10.4721 16.2664 10.4791 16.1995 10.4911 16.1334C10.5027 16.0708 10.524 16.0102 10.5541 15.9535C10.5768 15.8896 10.6086 15.8291 10.6485 15.7735C10.6873 15.7211 10.7293 15.671 10.7744 15.6235C10.9773 15.4451 11.2432 15.346 11.5193 15.346C11.7953 15.346 12.0612 15.4451 12.2641 15.6235C12.4575 15.8141 12.5664 16.0683 12.5684 16.3334C12.5667 16.4641 12.5382 16.5932 12.4844 16.7134C12.4373 16.8375 12.3622 16.9502 12.2643 17.0435C12.1663 17.1368 12.0481 17.2084 11.9179 17.2533C11.7918 17.3046 11.6564 17.3318 11.5193 17.3333Z" fill="#00C2CB"/>
</svg>
