<svg width="24" height="24" viewBox="0 0 24 24" fill="none" xmlns="http://www.w3.org/2000/svg">
<path d="M20.8733 11.2581L17.8734 8.13777C17.7805 8.04121 17.6702 7.96462 17.5489 7.91238C17.4275 7.86014 17.2974 7.83328 17.1661 7.83333C17.0348 7.83338 16.9047 7.86034 16.7834 7.91266C16.662 7.96499 16.5518 8.04166 16.459 8.13829C16.3661 8.23493 16.2925 8.34964 16.2423 8.47588C16.1921 8.60211 16.1662 8.7374 16.1663 8.87402C16.1663 9.01063 16.1922 9.1459 16.2425 9.2721C16.2929 9.3983 16.3666 9.51296 16.4595 9.60953L17.7524 10.9533H12.1666C11.9014 10.9533 11.647 11.0629 11.4595 11.258C11.272 11.453 11.1666 11.7176 11.1666 11.9935C11.1666 12.2693 11.272 12.5339 11.4595 12.7289C11.647 12.924 11.9014 13.0336 12.1666 13.0336H17.7524L16.4595 14.3784C16.364 14.4744 16.2878 14.5891 16.2354 14.716C16.183 14.8429 16.1554 14.9794 16.1542 15.1175C16.1531 15.2556 16.1784 15.3926 16.2287 15.5204C16.2789 15.6482 16.3532 15.7644 16.4471 15.862C16.541 15.9597 16.6526 16.0369 16.7755 16.0892C16.8984 16.1415 17.0301 16.1678 17.1629 16.1666C17.2956 16.1654 17.4268 16.1367 17.5488 16.0822C17.6708 16.0277 17.7812 15.9485 17.8734 15.8491L20.8733 12.7288C20.9663 12.6322 21.0401 12.5175 21.0904 12.3912C21.1407 12.265 21.1666 12.1296 21.1666 11.9929C21.1666 11.8562 21.1407 11.7209 21.0904 11.5946C21.0401 11.4684 20.9663 11.3537 20.8733 11.2571V11.2581Z" fill="#FF00A4"/>
<path opacity="0.4" d="M12.119 13C11.8507 13 11.5933 12.8946 11.4035 12.7071C11.2138 12.5196 11.1071 12.2652 11.1071 12C11.1071 11.7348 11.2138 11.4804 11.4035 11.2929C11.5933 11.1054 11.8507 11 12.119 11H16.1667V5C16.1659 4.20459 15.8458 3.44199 15.2766 2.87956C14.7075 2.31712 13.9358 2.00079 13.131 2H5.03571C4.23084 2.00079 3.45916 2.31712 2.89003 2.87956C2.3209 3.44199 2.0008 4.20459 2 5V19C2.0008 19.7954 2.3209 20.558 2.89003 21.1204C3.45916 21.6829 4.23084 21.9992 5.03571 22H13.131C13.9358 21.9992 14.7075 21.6829 15.2766 21.1204C15.8458 20.558 16.1659 19.7954 16.1667 19V13H12.119Z" fill="#FF00A4"/>
</svg>
