<svg width="24" height="24" viewBox="0 0 24 24" fill="none" xmlns="http://www.w3.org/2000/svg">
<path d="M17.7336 11.9285C16.9086 12.6727 15.8382 13.0867 14.7271 13.0912C14.4799 13.0912 14.2389 13.0685 14.0035 13.0294C13.9789 13.0076 13.9498 12.9921 13.9253 12.9703C14.7451 13.6499 15.405 14.5018 15.8578 15.4656C16.3107 16.4293 16.5455 17.4811 16.5454 18.5459C16.5454 18.787 16.4496 19.0183 16.2791 19.1887C16.1086 19.3592 15.8774 19.455 15.6362 19.455H21.0909C21.332 19.455 21.5633 19.3592 21.7338 19.1887C21.9043 19.0183 22 18.787 22 18.5459C21.9996 17.1496 21.5971 15.783 20.8405 14.6094C20.0838 13.4359 19.0052 12.5051 17.7336 11.9285Z" fill="#00C2CB"/>
<path d="M9.27287 13.0911C8.06731 13.0911 6.91112 12.6122 6.05866 11.7598C5.2062 10.9073 4.72729 9.75113 4.72729 8.54557C4.72729 7.34001 5.2062 6.18383 6.05866 5.33137C6.91112 4.47891 8.06731 4 9.27287 4C10.4784 4 11.6346 4.47891 12.4871 5.33137C13.3395 6.18383 13.8184 7.34001 13.8184 8.54557C13.8184 9.75113 13.3395 10.9073 12.4871 11.7598C11.6346 12.6122 10.4784 13.0911 9.27287 13.0911Z" fill="#00C2CB" fill-opacity="0.1"/>
<path d="M9.27287 13.0911C8.06731 13.0911 6.91112 12.6122 6.05866 11.7598C5.2062 10.9073 4.72729 9.75113 4.72729 8.54557C4.72729 7.34001 5.2062 6.18383 6.05866 5.33137C6.91112 4.47891 8.06731 4 9.27287 4C10.4784 4 11.6346 4.47891 12.4871 5.33137C13.3395 6.18383 13.8184 7.34001 13.8184 8.54557C13.8184 9.75113 13.3395 10.9073 12.4871 11.7598C11.6346 12.6122 10.4784 13.0911 9.27287 13.0911Z" fill="#00C2CB" fill-opacity="0.1"/>
<path d="M12.2794 11.9285C11.4544 12.6727 10.384 13.0867 9.27291 13.0912C8.16134 13.0883 7.09004 12.6748 6.26465 11.9303C4.99363 12.5071 3.91557 13.4377 3.15931 14.6109C2.40306 15.784 2.00059 17.1501 2 18.5459C2 18.787 2.09578 19.0183 2.26627 19.1887C2.43677 19.3592 2.668 19.455 2.90911 19.455H15.6367C15.8778 19.455 16.1091 19.3592 16.2796 19.1887C16.45 19.0183 16.5458 18.787 16.5458 18.5459C16.5454 17.1496 16.1429 15.783 15.3862 14.6094C14.6296 13.4359 13.551 12.5051 12.2794 11.9285Z" fill="#45EBFA"/>
<path d="M14.7273 4C13.7 4 12.7618 4.35455 12 4.93002C12.3161 5.16992 12.5994 5.45019 12.8427 5.76368C13.0551 6.03169 13.2362 6.32296 13.3828 6.63189C13.4209 6.71461 13.46 6.79643 13.4937 6.88189C13.5819 7.10099 13.6528 7.32736 13.7055 7.56373C13.7173 7.61827 13.7255 7.67555 13.7364 7.73191C13.7846 7.99556 13.8182 8.26647 13.8182 8.54557C13.8182 8.83194 13.7855 9.10922 13.7337 9.37923C13.7255 9.41923 13.7219 9.46105 13.7128 9.50014C13.6615 9.72612 13.5925 9.94772 13.5064 10.1629C13.4737 10.2483 13.4419 10.3338 13.4037 10.4174C13.3273 10.5811 13.24 10.7374 13.1464 10.8902C12.91 11.2802 12.6182 11.6266 12.2782 11.9293C12.9064 12.2148 13.4873 12.5848 14.0037 13.0293C14.2401 13.0684 14.4801 13.0911 14.7273 13.0911C15.9329 13.0911 17.0891 12.6122 17.9415 11.7598C18.794 10.9073 19.2729 9.75113 19.2729 8.54557C19.2729 7.34001 18.794 6.18383 17.9415 5.33137C17.0891 4.47891 15.9329 4 14.7273 4Z" fill="#00C2CB" fill-opacity="0.5"/>
</svg>
