<svg width="24" height="24" viewBox="0 0 24 24" fill="none" xmlns="http://www.w3.org/2000/svg">
<path opacity="0.2" d="M12.0007 13.996C14.2143 13.996 16.0087 12.2044 16.0087 9.99422C16.0087 7.78407 14.2143 5.99239 12.0007 5.99239C9.78713 5.99239 7.99268 7.78407 7.99268 9.99422C7.99268 12.2044 9.78713 13.996 12.0007 13.996Z" fill="#00C2CB"/>
<path d="M14.9826 12.6457C14.6099 13.0691 14.1512 13.4084 13.6371 13.6412C13.123 13.8741 12.5652 13.9951 12.0007 13.9964C11.4363 13.995 10.8787 13.8739 10.3648 13.641C9.85084 13.4082 9.39236 13.0689 9.01972 12.6457C7.8237 13.1236 6.76071 13.8823 5.92084 14.8576C5.08097 15.8329 4.48899 16.996 4.19507 18.2483C5.13213 19.4169 6.31989 20.3606 7.67082 21.0099C9.02174 21.6592 10.5014 21.9976 12.0007 22C13.5 21.9976 14.9796 21.6592 16.3305 21.0099C17.6815 20.3606 18.8692 19.4169 19.8063 18.2483C19.5133 16.9957 18.9218 15.8323 18.082 14.8569C17.2422 13.8815 16.179 13.1229 14.9826 12.6457Z" fill="#00C2CB"/>
<path d="M9.01904 12.6448C8.36075 11.9179 7.99494 10.9736 7.99198 9.99364C7.99198 8.93229 8.41426 7.91441 9.1659 7.16392C9.91755 6.41344 10.937 5.99182 12 5.99182C13.063 5.99182 14.0824 6.41344 14.8341 7.16392C15.5857 7.91441 16.008 8.93229 16.008 9.99364C16.0053 10.9735 15.6399 11.9178 14.982 12.6448C16.1744 13.1208 17.2346 13.8764 18.073 14.8477C18.9114 15.819 19.5032 16.9775 19.7986 18.2254C21.2249 16.4573 22.0018 14.2548 22 11.9845C22 6.47003 17.523 2 12 2C6.47695 2 2 6.47003 2 11.9845C2 14.3476 2.82665 16.5156 4.2014 18.2254C4.49773 16.9778 5.09006 15.8196 5.92849 14.8484C6.76692 13.8772 7.82687 13.1215 9.01904 12.6448Z" fill="#45EBFA"/>
</svg>
