<svg width="24" height="24" viewBox="0 0 24 24" fill="none" xmlns="http://www.w3.org/2000/svg">
<path d="M15.2519 4.18979C15.6698 3.7541 15.9885 3.24802 16.1895 2.70062C16.3906 2.15323 16.4702 1.57529 16.4236 1C15.1407 1.09368 13.9498 1.63951 13.1074 2.5199C12.7041 2.94185 12.3984 3.43272 12.2085 3.96345C12.0187 4.49418 11.9485 5.05397 12.0021 5.60969C12.6279 5.61441 13.2465 5.4888 13.81 5.24258C14.3736 4.99636 14.8669 4.63613 15.2519 4.18979ZM18.0375 11.6293C18.0449 10.8631 18.2681 10.1112 18.6858 9.44464C19.1036 8.77807 19.7022 8.21878 20.4252 7.81955C19.9689 7.22483 19.3657 6.73445 18.6635 6.38732C17.9612 6.04018 17.1792 5.84583 16.3794 5.81968C14.655 5.65969 13.0632 6.72962 12.1458 6.72962C11.2283 6.72962 9.93495 5.83968 8.49794 5.85968C7.55849 5.88767 6.6431 6.13544 5.84105 6.57882C5.039 7.02219 4.37768 7.64604 3.92158 8.38951C1.97608 11.4493 3.42415 15.999 5.36966 18.4688C6.25398 19.6788 7.35937 21.0487 8.8185 20.9987C10.2776 20.9487 10.7529 20.1787 12.4442 20.1787C14.1355 20.1787 14.655 20.9987 16.092 20.9687C17.529 20.9387 18.546 19.7288 19.4746 18.5188C20.1323 17.6404 20.6461 16.6805 21 15.669C20.1239 15.3311 19.3765 14.7684 18.85 14.0504C18.3236 13.3325 18.0411 12.4908 18.0375 11.6293Z" fill="black"/>
</svg>
