<svg width="24" height="24" viewBox="0 0 24 24" fill="none" xmlns="http://www.w3.org/2000/svg">
<path fill-rule="evenodd" clip-rule="evenodd" d="M11.6494 3C12.1658 3 12.5844 3.41864 12.5844 3.93506V15.0023L17.2998 10.2869C17.665 9.9217 18.2571 9.9217 18.6222 10.2869C18.9874 10.652 18.9874 11.2441 18.6222 11.6092L12.3105 17.9209C11.9454 18.2861 11.3533 18.2861 10.9882 17.9209L4.67647 11.6092C4.31131 11.2441 4.31131 10.652 4.67647 10.2869C5.04164 9.9217 5.63369 9.9217 5.99885 10.2869L10.7143 15.0023V3.93506C10.7143 3.41864 11.1329 3 11.6494 3ZM3 20.0649C3 19.5485 3.41864 19.1299 3.93506 19.1299H19.3636C19.8801 19.1299 20.2987 19.5485 20.2987 20.0649C20.2987 20.5814 19.8801 21 19.3636 21H3.93506C3.41864 21 3 20.5814 3 20.0649Z" fill="black"/>
</svg>
