<svg width="24" height="24" viewBox="0 0 24 24" fill="none" xmlns="http://www.w3.org/2000/svg">
<path d="M12 3C10.1813 3 8.43712 3.71116 7.15112 4.97703C5.86512 6.2429 5.14265 7.95979 5.14265 9.75V13.7843L4.33462 14.5796C4.17484 14.737 4.06603 14.9374 4.02195 15.1556C3.97787 15.3738 4.0005 15.5999 4.08698 15.8055C4.17347 16.011 4.31992 16.1867 4.50782 16.3103C4.69572 16.4339 4.91664 16.5 5.14265 16.5H18.8574C19.0834 16.5 19.3043 16.4339 19.4922 16.3103C19.6801 16.1867 19.8265 16.011 19.913 15.8055C19.9995 15.5999 20.0221 15.3738 19.9781 15.1556C19.934 14.9374 19.8252 14.737 19.6654 14.5796L18.8574 13.7843V9.75C18.8574 7.95979 18.1349 6.2429 16.8489 4.97703C15.5629 3.71116 13.8187 3 12 3ZM12 21C11.0907 21 10.2186 20.6444 9.57556 20.0115C8.93256 19.3786 8.57132 18.5201 8.57132 17.625H15.4287C15.4287 18.5201 15.0674 19.3786 14.4244 20.0115C13.7814 20.6444 12.9093 21 12 21Z" fill="black"/>
</svg>
