<svg width="24" height="24" viewBox="0 0 24 24" fill="none" xmlns="http://www.w3.org/2000/svg">
<path fill-rule="evenodd" clip-rule="evenodd" d="M9.30357 3.80798C9.30357 3.36174 8.9398 3 8.49107 3C8.04234 3 7.67857 3.36174 7.67857 3.80798V4.17029L7.52183 4.17029C6.89528 4.17028 6.37591 4.17027 5.95235 4.20489C5.51163 4.24092 5.10338 4.31847 4.71911 4.51437C4.12567 4.81692 3.64411 5.29918 3.34261 5.89121C3.14768 6.274 3.07046 6.68064 3.03454 7.12051C2.99998 7.54369 2.99999 8.06282 3 8.69015V16.4801C2.99999 17.1075 2.99998 17.6266 3.03454 18.0498C3.07046 18.4897 3.14768 18.8963 3.34261 19.2791C3.64411 19.8711 4.12567 20.3534 4.71911 20.6559C5.10338 20.8518 5.51163 20.9294 5.95235 20.9654C6.3759 21 6.89526 21 7.52179 21H16.4782C17.1047 21 17.6241 21 18.0476 20.9654C18.4884 20.9294 18.8966 20.8518 19.2809 20.6559C19.8743 20.3534 20.3559 19.8711 20.6574 19.2791C20.8523 18.8963 20.9295 18.4897 20.9655 18.0498C21 17.6266 21 17.1074 21 16.4801V8.69023C21 8.06286 21 7.5437 20.9655 7.12051C20.9295 6.68064 20.8523 6.274 20.6574 5.89121C20.3559 5.29918 19.8743 4.81692 19.2809 4.51437C18.8966 4.31847 18.4884 4.24092 18.0476 4.20489C17.6241 4.17027 17.1047 4.17028 16.4782 4.17029L16.3214 4.17029V3.80798C16.3214 3.36174 15.9577 3 15.5089 3C15.0602 3 14.6964 3.36174 14.6964 3.80798V4.17029H9.30357V3.80798ZM7.55536 5.78625H7.67857V7.31885C7.67857 7.76508 8.04234 8.12683 8.49107 8.12683C8.9398 8.12683 9.30357 7.76508 9.30357 7.31885V5.78625H14.6964V7.31885C14.6964 7.76508 15.0602 8.12683 15.5089 8.12683C15.9577 8.12683 16.3214 7.76508 16.3214 7.31885V5.78625H16.4446C17.1132 5.78625 17.5654 5.78688 17.9145 5.81542C18.254 5.84317 18.4234 5.89317 18.5396 5.95238C18.8264 6.09863 19.0606 6.3325 19.2077 6.62128C19.2677 6.73917 19.318 6.91058 19.3458 7.2513C19.3744 7.60131 19.375 8.05452 19.375 8.72319V10.0217H4.625V8.72319C4.625 8.05452 4.62563 7.60131 4.65421 7.2513C4.68203 6.91058 4.73229 6.73917 4.79232 6.62128C4.93938 6.3325 5.17355 6.09863 5.46044 5.95238C5.57657 5.89317 5.74605 5.84317 6.08549 5.81542C6.43456 5.78688 6.88681 5.78625 7.55536 5.78625Z" fill="black"/>
</svg>
