<svg width="24" height="24" viewBox="0 0 24 24" fill="none" xmlns="http://www.w3.org/2000/svg">
<path fill-rule="evenodd" clip-rule="evenodd" d="M8.40749 2C8.85834 2 9.22382 2.36548 9.22382 2.81633V3.83996H14.9362V2.81633C14.9362 2.36548 15.3017 2 15.7525 2C16.2034 2 16.5689 2.36548 16.5689 2.81633V3.83996H18.5073C19.9724 3.83996 21.16 5.02762 21.16 6.49267V19.3473C21.16 20.8123 19.9724 22 18.5073 22H5.6527C4.18766 22 3 20.8123 3 19.3473V6.49267C3 5.02762 4.18766 3.83996 5.6527 3.83996H7.59116V2.81633C7.59116 2.36548 7.95665 2 8.40749 2ZM7.59116 5.47262H5.6527C5.08934 5.47262 4.63265 5.92931 4.63265 6.49267V9.34909H19.5274V6.49267C19.5274 5.92931 19.0707 5.47262 18.5073 5.47262H16.5689V6.48908C16.5689 6.93992 16.2034 7.30541 15.7525 7.30541C15.3017 7.30541 14.9362 6.93992 14.9362 6.48908V5.47262H9.22382V6.48908C9.22382 6.93992 8.85834 7.30541 8.40749 7.30541C7.95665 7.30541 7.59116 6.93992 7.59116 6.48908V5.47262ZM19.5274 10.9817H4.63265V19.3473C4.63265 19.9107 5.08934 20.3673 5.6527 20.3673H18.5073C19.0707 20.3673 19.5274 19.9107 19.5274 19.3473V10.9817ZM15.4118 13.2574C15.7306 13.5761 15.7306 14.093 15.4118 14.4118L11.7391 18.0846C11.4203 18.4034 10.9034 18.4034 10.5846 18.0846L8.74823 16.2482C8.42943 15.9294 8.42943 15.4125 8.74822 15.0937C9.06702 14.7749 9.58389 14.7749 9.90269 15.0937L11.1618 16.3529L14.2574 13.2574C14.5761 12.9386 15.093 12.9386 15.4118 13.2574Z" fill="black"/>
</svg>
