<svg width="24" height="24" viewBox="0 0 24 24" fill="none" xmlns="http://www.w3.org/2000/svg">
<path fill-rule="evenodd" clip-rule="evenodd" d="M20.281 10.8261C20.7523 10.7478 21.0665 10.3565 20.988 9.96522C20.5952 6.36522 17.6889 3.46957 13.997 3C13.6043 3 13.133 3.31304 13.133 3.70435C13.133 4.09565 13.4472 4.48696 13.8399 4.56522C16.8248 4.95652 19.1028 7.22609 19.417 10.1217C19.4955 10.513 19.8097 10.8261 20.2025 10.8261H20.281ZM16.1179 13.487C16.7463 13.7217 17.4532 13.8783 18.1602 13.9565C19.3384 14.113 20.2025 15.1304 20.2025 16.3043V18.6522C20.2025 19.2783 19.8883 19.8261 19.4955 20.2957C19.1028 20.7652 18.4744 21 17.846 21H17.6103C15.0967 20.7652 12.5831 19.9043 10.4623 18.4957C8.49851 17.2435 6.7704 15.5217 5.5136 13.5652C4.17825 11.4522 3.23565 8.94783 3 6.44348C3 5.81739 3.1571 5.1913 3.54985 4.72174C3.9426 4.25217 4.49245 3.93913 5.12085 3.86087H7.71301C8.89126 3.86087 9.91241 4.72174 10.0695 5.89565C10.1481 6.6 10.3052 7.30435 10.5408 7.93043C10.855 8.7913 10.6194 9.8087 9.99096 10.4348L9.44111 10.9826C10.3837 12.4696 11.6405 13.6435 13.0544 14.5826L13.6043 14.0348C14.3112 13.4087 15.2538 13.1739 16.1179 13.487ZM18.6315 18.6522V16.3043C18.6315 15.913 18.3173 15.6 18.0031 15.5217C17.2176 15.3652 16.4321 15.2087 15.6466 14.8957C15.3324 14.7391 15.0182 14.8174 14.7825 15.0522L13.7614 16.0696C13.5257 16.3826 13.133 16.3826 12.8188 16.2261C10.6979 15.0522 8.96981 13.3304 7.79156 11.2174C7.63446 10.9043 7.71301 10.513 7.94866 10.2783L8.96981 9.33913C9.12691 9.10435 9.20546 8.7913 9.12691 8.47826C8.81271 7.77391 8.57706 6.91304 8.49851 6.13043C8.41996 5.73913 8.10576 5.42609 7.71301 5.42609H5.3565C5.12085 5.42609 4.8852 5.58261 4.7281 5.73913C4.64955 5.89565 4.571 6.05217 4.571 6.28696C4.80665 8.55652 5.59215 10.7478 6.84895 12.7043C8.02721 14.5043 9.51966 16.0696 11.3263 17.1652C13.2901 18.4174 15.4895 19.2 17.7674 19.4348C18.0816 19.4348 18.2387 19.3565 18.3958 19.2C18.5529 19.0435 18.6315 18.887 18.6315 18.6522ZM13.8399 7.77391C13.4472 7.69565 13.133 7.30435 13.2115 6.83478C13.2901 6.44348 13.6828 6.13043 14.1541 6.2087C16.0393 6.6 17.5318 8.0087 17.846 9.88696C17.9245 10.2783 17.6889 10.7478 17.2176 10.8261H17.0605C16.6677 10.8261 16.3535 10.5913 16.275 10.2C16.0393 8.94783 15.0967 8.0087 13.8399 7.77391Z" fill="black"/>
</svg>
