<svg width="24" height="24" viewBox="0 0 24 24" fill="none" xmlns="http://www.w3.org/2000/svg">
<path d="M12 4.43703C9.45621 4.43703 6.92077 4.43703 4.37698 4.43703C3.43453 4.43703 2.66722 4.81234 2.25855 5.69641C2.10842 6.02169 2.01668 6.40534 2.01668 6.76397C2 10.4003 2 14.0367 2 17.6647C2 18.7823 2.6422 19.6247 3.70976 19.9166C3.92661 19.975 4.15179 20 4.36864 20C9.45621 20 14.5521 20 19.6397 20C20.7907 20 21.6414 19.3661 21.9249 18.2819C21.9833 18.0734 22 17.8565 22 17.6397C22 14.0284 22 10.4087 22 6.79733C22 5.66305 21.3745 4.82069 20.2902 4.52878C20.0651 4.46205 19.8148 4.44537 19.5813 4.44537C17.0459 4.44537 14.5104 4.44537 11.9833 4.44537L12 4.43703ZM8.9558 8.87406C9.93161 8.91576 10.749 9.22435 11.3912 9.92494C11.6163 10.1668 11.7331 10.4587 11.633 10.7923C11.5329 11.1176 11.2994 11.3011 10.9741 11.3761C10.5988 11.4595 10.3486 11.251 10.0901 11.0259C9.53962 10.5171 8.79733 10.442 8.11343 10.8007C7.56297 11.0926 7.196 11.8599 7.3211 12.5104C7.49625 13.4362 8.33028 13.9616 9.1643 13.8532C9.60634 13.7948 9.93995 13.553 10.2736 13.2694C10.6405 12.9525 11.1243 12.9858 11.4245 13.3028C11.7498 13.653 11.7415 14.1451 11.3995 14.5121C9.97331 16.03 7.45455 15.8882 6.25354 14.1952C5.46956 13.1026 5.36947 11.8932 5.98666 10.6922C6.60384 9.4829 7.65471 8.9241 8.9558 8.87406ZM15.628 8.87406C16.6038 8.91576 17.4212 9.22435 18.0634 9.92494C18.2886 10.1668 18.4053 10.4587 18.3053 10.7923C18.2052 11.1176 17.9716 11.3011 17.6464 11.3761C17.2711 11.4595 17.0209 11.251 16.7623 11.0175C16.2118 10.5088 15.4696 10.4337 14.7857 10.7923C14.2352 11.0842 13.8682 11.8515 13.9933 12.5021C14.1685 13.4279 15.0025 13.9533 15.8365 13.8449C16.2786 13.7865 16.6122 13.5446 16.9458 13.2611C17.3128 12.9441 17.7965 12.9775 18.0967 13.2944C18.422 13.6447 18.4137 14.1368 18.0717 14.5038C16.6455 16.0133 14.1268 15.8799 12.9258 14.1868C12.1418 13.0942 12.0417 11.8849 12.6589 10.6839C13.2761 9.47456 14.3269 8.91576 15.628 8.86572V8.87406Z" fill="black"/>
</svg>
