<svg width="24" height="24" viewBox="0 0 24 24" fill="none" xmlns="http://www.w3.org/2000/svg">
<path fill-rule="evenodd" clip-rule="evenodd" d="M13.5951 2.9816C13.5951 2.43948 14.0346 2 14.5767 2C18.6765 2 22 5.32353 22 9.42331C22 9.96543 21.5605 10.4049 21.0184 10.4049H14.5767C14.0346 10.4049 13.5951 9.96543 13.5951 9.42331V2.9816ZM2 13.9325C2 9.47697 5.61194 5.86503 10.0675 5.86503C10.6096 5.86503 11.0491 6.30451 11.0491 6.84663V12.9509H17.1534C17.6955 12.9509 18.135 13.3904 18.135 13.9325C18.135 18.3881 14.523 22 10.0675 22C5.61194 22 2 18.3881 2 13.9325Z" fill="black"/>
</svg>
