<svg width="24" height="24" viewBox="0 0 24 24" fill="none" xmlns="http://www.w3.org/2000/svg">
<path fill-rule="evenodd" clip-rule="evenodd" d="M10.9934 3.39927C11.256 3.13269 11.614 3 12 3C12.386 3 12.744 3.13269 13.0066 3.39927C13.2693 3.66584 13.4 4.0292 13.4 4.42105V19.5789C13.4 19.9708 13.2693 20.3342 13.0066 20.6007C12.744 20.8673 12.386 21 12 21C11.614 21 11.256 20.8673 10.9934 20.6007C10.7307 20.3342 10.6 19.9708 10.6 19.5789V4.42105C10.6 4.0292 10.7307 3.66584 10.9934 3.39927ZM16.5934 9.08348C16.856 8.8169 17.214 8.68421 17.6 8.68421C17.986 8.68421 18.344 8.8169 18.6066 9.08348C18.8693 9.35006 19 9.71341 19 10.1053V19.5789C19 19.9708 18.8693 20.3342 18.6066 20.6007C18.344 20.8673 17.986 21 17.6 21C17.214 21 16.856 20.8673 16.5934 20.6007C16.3307 20.3342 16.2 19.9708 16.2 19.5789V10.1053C16.2 9.71341 16.3307 9.35006 16.5934 9.08348ZM5.39335 12.8729C5.65598 12.6064 6.01395 12.4737 6.4 12.4737C6.78605 12.4737 7.14402 12.6064 7.40665 12.8729C7.66928 13.1395 7.8 13.5029 7.8 13.8947V19.5789C7.8 19.9708 7.66928 20.3342 7.40665 20.6007C7.14402 20.8673 6.78605 21 6.4 21C6.01395 21 5.65598 20.8673 5.39335 20.6007C5.13072 20.3342 5 19.9708 5 19.5789V13.8947C5 13.5029 5.13072 13.1395 5.39335 12.8729Z" fill="black"/>
</svg>
