<svg width="24" height="24" viewBox="0 0 24 24" fill="none" xmlns="http://www.w3.org/2000/svg">
<path fill-rule="evenodd" clip-rule="evenodd" d="M3.76254 21C3.85255 21 3.86755 21 3.89756 20.9625L3.97257 20.9175L8.90077 19.2375L8.96828 19.2675C10.1159 19.7475 11.2936 19.9875 12.4713 19.9875C15.7342 19.9875 18.6597 18.195 20.0999 15.315C20.685 14.22 21 12.885 21 11.445V10.9875C20.73 6.615 17.257 3.18 12.9288 3H12.4713C11.0611 3 9.8309 3.2925 8.70574 3.8925C5.77282 5.325 3.95006 8.25 3.95006 11.5425C3.95006 12.69 4.2051 13.9425 4.67017 15.0525L4.70017 15.12L3.02743 20.055C2.95242 20.355 3.04243 20.6475 3.16245 20.775C3.38748 20.9175 3.5375 20.9925 3.76254 20.9925V21Z" fill="black"/>
</svg>
