<svg width="56" height="56" viewBox="0 0 56 56" fill="none" xmlns="http://www.w3.org/2000/svg">
<g id="Checkbox Ellipse">
<rect x="1" y="1" width="54" height="54" rx="27" fill="white"/>
<rect x="1" y="1" width="54" height="54" rx="27" stroke="#D9D9D9" stroke-width="2"/>
<path id="Vector" fill-rule="evenodd" clip-rule="evenodd" d="M28 48C39.0457 48 48 39.0457 48 28C48 16.9543 39.0457 8 28 8C16.9543 8 8 16.9543 8 28C8 39.0457 16.9543 48 28 48ZM25.0874 30.1549L30.0869 25.0774C32.8367 22.2848 35.103 20 35.1233 20C35.1435 20 35.7991 20.6495 36.5801 21.4433L38 22.8866L25.0864 36L18 28.8026L20.8784 25.8824L25.0874 30.1549Z" fill="#EF0CAF"/>
</g>
</svg>
