<svg width="24" height="24" viewBox="0 0 24 24" fill="none" xmlns="http://www.w3.org/2000/svg">
<path fill-rule="evenodd" clip-rule="evenodd" d="M7.56655 3H11.8049C12.422 2.99999 12.9391 2.99998 13.3619 3.03452C13.8034 3.0706 14.2209 3.1488 14.6164 3.35034C15.2212 3.6585 15.7129 4.15023 16.0211 4.75503C16.2226 5.15058 16.3008 5.56798 16.3369 6.00955C16.3715 6.43234 16.3714 6.94938 16.3714 7.56653V7.62857L16.4335 7.62857C17.0506 7.62856 17.5677 7.62855 17.9904 7.66309C18.432 7.69917 18.8494 7.77737 19.245 7.97891C19.8498 8.28707 20.3415 8.7788 20.6497 9.3836C20.8512 9.77915 20.9294 10.1966 20.9655 10.6381C21 11.0609 21 11.578 21 12.1951V16.4335C21 17.0506 21 17.5677 20.9655 17.9904C20.9294 18.432 20.8512 18.8494 20.6497 19.245C20.3415 19.8498 19.8498 20.3415 19.245 20.6497C18.8494 20.8512 18.432 20.9294 17.9904 20.9655C17.5677 21 17.0506 21 16.4335 21H12.1951C11.578 21 11.0609 21 10.6381 20.9655C10.1966 20.9294 9.77915 20.8512 9.3836 20.6497C8.7788 20.3415 8.28707 19.8498 7.97891 19.245C7.77737 18.8494 7.69917 18.432 7.66309 17.9904C7.62855 17.5677 7.62856 17.0506 7.62857 16.4335L7.62857 16.3714H7.56653C6.94938 16.3714 6.43234 16.3715 6.00955 16.3369C5.56798 16.3008 5.15058 16.2226 4.75503 16.0211C4.15023 15.7129 3.6585 15.2212 3.35034 14.6164C3.1488 14.2209 3.0706 13.8034 3.03452 13.3619C2.99998 12.9391 2.99999 12.422 3 11.8049V7.56655C2.99999 6.9494 2.99998 6.43235 3.03452 6.00955C3.0706 5.56798 3.1488 5.15058 3.35034 4.75503C3.6585 4.15022 4.15022 3.6585 4.75503 3.35034C5.15058 3.1488 5.56798 3.0706 6.00955 3.03452C6.43235 2.99998 6.9494 2.99999 7.56655 3ZM7.62857 14.5714L7.62857 12.1951C7.62856 11.578 7.62855 11.0609 7.66309 10.6381C7.69917 10.1966 7.77737 9.77915 7.97891 9.3836C8.28707 8.7788 8.7788 8.28707 9.3836 7.97891C9.77915 7.77737 10.1966 7.69917 10.6381 7.66309C11.0609 7.62855 11.578 7.62856 12.1951 7.62857L14.5714 7.62857V7.60286C14.5714 6.93995 14.5707 6.49689 14.5429 6.15613C14.5159 5.82587 14.468 5.67172 14.4173 5.57221C14.2817 5.3061 14.0653 5.08974 13.7992 4.95415C13.6997 4.90345 13.5456 4.85552 13.2153 4.82854C12.8745 4.8007 12.4315 4.8 11.7686 4.8H7.60286C6.93995 4.8 6.49689 4.8007 6.15613 4.82854C5.82587 4.85552 5.67172 4.90345 5.57221 4.95415C5.3061 5.08974 5.08974 5.3061 4.95415 5.57221C4.90345 5.67172 4.85552 5.82587 4.82854 6.15613C4.8007 6.49689 4.8 6.93995 4.8 7.60286V11.7686C4.8 12.4315 4.8007 12.8745 4.82854 13.2153C4.85552 13.5456 4.90345 13.6997 4.95415 13.7992C5.08974 14.0653 5.3061 14.2817 5.57221 14.4173C5.67172 14.468 5.82587 14.5159 6.15613 14.5429C6.49689 14.5707 6.93995 14.5714 7.60286 14.5714H7.62857ZM10.7847 9.45711C10.4544 9.4841 10.3003 9.53202 10.2008 9.58272C9.93467 9.71831 9.71831 9.93467 9.58272 10.2008C9.53202 10.3003 9.4841 10.4544 9.45711 10.7847C9.42927 11.1255 9.42857 11.5685 9.42857 12.2314V16.3971C9.42857 17.0601 9.42927 17.5031 9.45711 17.8439C9.4841 18.1741 9.53202 18.3283 9.58272 18.4278C9.71831 18.6939 9.93467 18.9103 10.2008 19.0459C10.3003 19.0966 10.4544 19.1445 10.7847 19.1715C11.1255 19.1993 11.5685 19.2 12.2314 19.2H16.3971C17.0601 19.2 17.5031 19.1993 17.8439 19.1715C18.1741 19.1445 18.3283 19.0966 18.4278 19.0459C18.6939 18.9103 18.9103 18.6939 19.0459 18.4278C19.0966 18.3283 19.1445 18.1741 19.1715 17.8439C19.1993 17.5031 19.2 17.0601 19.2 16.3971V12.2314C19.2 11.5685 19.1993 11.1255 19.1715 10.7847C19.1445 10.4544 19.0966 10.3003 19.0459 10.2008C18.9103 9.93467 18.6939 9.71831 18.4278 9.58272C18.3283 9.53202 18.1741 9.4841 17.8439 9.45711C17.5031 9.42927 17.0601 9.42857 16.3971 9.42857H12.2314C11.5685 9.42857 11.1255 9.42927 10.7847 9.45711Z" fill="black"/>
</svg>
