<svg width="24" height="24" viewBox="0 0 24 24" fill="none" xmlns="http://www.w3.org/2000/svg">
<path fill-rule="evenodd" clip-rule="evenodd" d="M12 4.8C10.0904 4.8 8.25909 5.55857 6.90883 6.90883C5.55857 8.25909 4.8 10.0904 4.8 12C4.8 12.9455 4.98623 13.8818 5.34807 14.7553C5.7099 15.6289 6.24025 16.4226 6.90883 17.0912C7.57741 17.7598 8.37114 18.2901 9.24468 18.6519C10.1182 19.0138 11.0545 19.2 12 19.2C12.9455 19.2 13.8818 19.0138 14.7553 18.6519C15.6289 18.2901 16.4226 17.7598 17.0912 17.0912C17.7598 16.4226 18.2901 15.6289 18.6519 14.7553C19.0138 13.8818 19.2 12.9455 19.2 12C19.2 10.0904 18.4414 8.25909 17.0912 6.90883C15.7409 5.55857 13.9096 4.8 12 4.8ZM5.63604 5.63604C7.32387 3.94821 9.61305 3 12 3C14.3869 3 16.6761 3.94821 18.364 5.63604C20.0518 7.32387 21 9.61305 21 12C21 13.1819 20.7672 14.3522 20.3149 15.4442C19.8626 16.5361 19.1997 17.5282 18.364 18.364C17.5282 19.1997 16.5361 19.8626 15.4442 20.3149C14.3522 20.7672 13.1819 21 12 21C10.8181 21 9.64778 20.7672 8.55585 20.3149C7.46392 19.8626 6.47177 19.1997 5.63604 18.364C4.80031 17.5282 4.13738 16.5361 3.68508 15.4442C3.23279 14.3522 3 13.1819 3 12C3 9.61305 3.94821 7.32387 5.63604 5.63604ZM12 7.5C12.4971 7.5 12.9 7.90294 12.9 8.4V11.6272L15.3364 14.0636C15.6879 14.4151 15.6879 14.9849 15.3364 15.3364C14.9849 15.6879 14.4151 15.6879 14.0636 15.3364L11.3636 12.6364C11.1948 12.4676 11.1 12.2387 11.1 12V8.4C11.1 7.90294 11.5029 7.5 12 7.5Z" fill="black"/>
</svg>
