<svg width="24" height="24" viewBox="0 0 24 24" fill="none" xmlns="http://www.w3.org/2000/svg">
<path fill-rule="evenodd" clip-rule="evenodd" d="M12 21C16.9706 21 21 16.9706 21 12C21 7.02944 16.9706 3 12 3C7.02944 3 3 7.02944 3 12C3 16.9706 7.02944 21 12 21ZM11.9997 7.63843C12.4968 7.63843 12.8997 8.04137 12.8997 8.53843L12.8997 12.3198L15.0835 14.5036C15.435 14.8551 15.435 15.425 15.0835 15.7764C14.7321 16.1279 14.1622 16.1279 13.8107 15.7764L11.3631 13.3287C11.1818 13.1475 11.094 12.9081 11.0997 12.6706V8.53843C11.0997 8.04137 11.5027 7.63843 11.9997 7.63843Z" fill="black"/>
</svg>
