<svg width="24" height="24" viewBox="0 0 24 24" fill="none" xmlns="http://www.w3.org/2000/svg">
<path d="M3 8.27442C3 6.77823 3 6.03014 3.28027 5.45867C3.5268 4.95599 3.92018 4.5473 4.40402 4.29118C4.95408 4 5.67415 4 7.11429 4H16.8857C18.3259 4 19.0459 4 19.596 4.29118C20.0798 4.5473 20.4732 4.95599 20.7197 5.45867C21 6.03014 21 6.77823 21 8.27442V10.4883H3V8.27442Z" fill="black"/>
<path fill-rule="evenodd" clip-rule="evenodd" d="M3 12.3081V15.7546C3 17.2508 3 17.9989 3.28027 18.5704C3.5268 19.0731 3.92018 19.4818 4.40402 19.7379C4.95408 20.0291 5.67415 20.0291 7.11429 20.0291H16.8857C18.3259 20.0291 19.0459 20.0291 19.596 19.7379C20.0798 19.4818 20.4732 19.0731 20.7197 18.5704C21 17.9989 21 17.2508 21 15.7546V12.3081H3ZM6.83682 15.9192C6.83682 15.4167 7.24419 15.0093 7.74671 15.0093H10.9115C11.4141 15.0093 11.8214 15.4167 11.8214 15.9192C11.8214 16.4217 11.4141 16.8291 10.9115 16.8291H7.74671C7.24419 16.8291 6.83682 16.4217 6.83682 15.9192Z" fill="black"/>
</svg>
