<svg width="24" height="24" viewBox="0 0 24 24" fill="none" xmlns="http://www.w3.org/2000/svg">
<path fill-rule="evenodd" clip-rule="evenodd" d="M3 5.9C3 5.40294 3.40294 5 3.9 5H20.1C20.5971 5 21 5.40294 21 5.9V16.7C21 18.1912 19.7912 19.4 18.3 19.4H5.7C4.20884 19.4 3 18.1912 3 16.7V5.9ZM4.8 10.4V16.7C4.8 17.1971 5.20294 17.6 5.7 17.6H18.3C18.7971 17.6 19.2 17.1971 19.2 16.7V10.4H4.8ZM19.2 8.6H4.8V6.8H19.2V8.6ZM6.6 13.1C6.6 12.6029 7.00294 12.2 7.5 12.2H10.2C10.6971 12.2 11.1 12.6029 11.1 13.1C11.1 13.5971 10.6971 14 10.2 14H7.5C7.00294 14 6.6 13.5971 6.6 13.1Z" fill="black"/>
</svg>
