<svg width="24" height="24" viewBox="0 0 24 24" fill="none" xmlns="http://www.w3.org/2000/svg">
<path d="M16.8462 12.0769C16.8462 10.9299 17.776 10 18.9231 10C20.0701 10 21 10.9299 21 12.0769C21 13.224 20.0701 14.1538 18.9231 14.1538C17.776 14.1538 16.8462 13.224 16.8462 12.0769Z" fill="black"/>
<path d="M9.92309 12.0769C9.92309 10.9299 10.853 10 12 10C13.147 10 14.0769 10.9299 14.0769 12.0769C14.0769 13.224 13.147 14.1538 12 14.1538C10.853 14.1538 9.92309 13.224 9.92309 12.0769Z" fill="black"/>
<path d="M3 12.0769C3 10.9299 3.92986 10 5.07691 10C6.22395 10 7.15381 10.9299 7.15381 12.0769C7.15381 13.224 6.22395 14.1538 5.07691 14.1538C3.92986 14.1538 3 13.224 3 12.0769Z" fill="black"/>
</svg>
