<svg width="24" height="24" viewBox="0 0 24 24" fill="none" xmlns="http://www.w3.org/2000/svg">
<path d="M12 2C12.2652 2 12.5196 2.10536 12.7071 2.29289C12.8946 2.48043 13 2.73478 13 3V13.586L15.293 11.293C15.4816 11.1108 15.7342 11.01 15.9964 11.0123C16.2586 11.0146 16.5094 11.1198 16.6948 11.3052C16.8802 11.4906 16.9854 11.7414 16.9877 12.0036C16.99 12.2658 16.8892 12.5184 16.707 12.707L12.707 16.707C12.5195 16.8945 12.2652 16.9998 12 16.9998C11.7348 16.9998 11.4805 16.8945 11.293 16.707L7.293 12.707C7.19749 12.6148 7.12131 12.5044 7.0689 12.3824C7.01649 12.2604 6.9889 12.1292 6.98775 11.9964C6.9866 11.8636 7.0119 11.7319 7.06218 11.609C7.11246 11.4861 7.18671 11.3745 7.2806 11.2806C7.3745 11.1867 7.48615 11.1125 7.60905 11.0622C7.73194 11.0119 7.86362 10.9866 7.9964 10.9877C8.12918 10.9889 8.2604 11.0165 8.3824 11.0689C8.50441 11.1213 8.61475 11.1975 8.707 11.293L11 13.586V3C11 2.73478 11.1054 2.48043 11.2929 2.29289C11.4804 2.10536 11.7348 2 12 2ZM5 17C5.26522 17 5.51957 17.1054 5.70711 17.2929C5.89464 17.4804 6 17.7348 6 18V20H18V18C18 17.7348 18.1054 17.4804 18.2929 17.2929C18.4804 17.1054 18.7348 17 19 17C19.2652 17 19.5196 17.1054 19.7071 17.2929C19.8946 17.4804 20 17.7348 20 18V20C20 20.5304 19.7893 21.0391 19.4142 21.4142C19.0391 21.7893 18.5304 22 18 22H6C5.46957 22 4.96086 21.7893 4.58579 21.4142C4.21071 21.0391 4 20.5304 4 20V18C4 17.7348 4.10536 17.4804 4.29289 17.2929C4.48043 17.1054 4.73478 17 5 17Z" fill="black"/>
</svg>
