<svg width="24" height="24" viewBox="0 0 24 24" fill="none" xmlns="http://www.w3.org/2000/svg">
<path fill-rule="evenodd" clip-rule="evenodd" d="M12 21C14.3869 21 16.6761 20.0518 18.364 18.364C20.0518 16.6761 21 14.3869 21 12C21 9.61305 20.0518 7.32387 18.364 5.63604C16.6761 3.94821 14.3869 3 12 3C9.61305 3 7.32387 3.94821 5.63604 5.63604C3.94821 7.32387 3 9.61305 3 12C3 14.3869 3.94821 16.6761 5.63604 18.364C7.32387 20.0518 9.61305 21 12 21ZM8.625 10.875C8.92337 10.875 9.20952 10.7565 9.4205 10.5455C9.63147 10.3345 9.75 10.0484 9.75 9.75C9.75 9.45163 9.63147 9.16548 9.4205 8.9545C9.20952 8.74353 8.92337 8.625 8.625 8.625C8.32663 8.625 8.04048 8.74353 7.8295 8.9545C7.61853 9.16548 7.5 9.45163 7.5 9.75C7.5 10.0484 7.61853 10.3345 7.8295 10.5455C8.04048 10.7565 8.32663 10.875 8.625 10.875ZM16.5 9.75C16.5 10.0484 16.3815 10.3345 16.1705 10.5455C15.9595 10.7565 15.6734 10.875 15.375 10.875C15.0766 10.875 14.7905 10.7565 14.5795 10.5455C14.3685 10.3345 14.25 10.0484 14.25 9.75C14.25 9.45163 14.3685 9.16548 14.5795 8.9545C14.7905 8.74353 15.0766 8.625 15.375 8.625C15.6734 8.625 15.9595 8.74353 16.1705 8.9545C16.3815 9.16548 16.5 9.45163 16.5 9.75ZM15.978 15.9769C16.0825 15.8724 16.1653 15.7483 16.2218 15.6117C16.2783 15.4752 16.3073 15.3289 16.3073 15.1811C16.3072 15.0333 16.2781 14.887 16.2215 14.7505C16.1649 14.614 16.082 14.49 15.9774 14.3856C15.8729 14.2811 15.7488 14.1983 15.6123 14.1418C15.4758 14.0853 15.3294 14.0562 15.1817 14.0563C15.0339 14.0563 14.8876 14.0855 14.7511 14.1421C14.6146 14.1987 14.4906 14.2816 14.3861 14.3861C13.7532 15.0188 12.8949 15.3743 12 15.3743C11.1051 15.3743 10.2468 15.0188 9.61388 14.3861C9.40293 14.175 9.11676 14.0564 8.81834 14.0563C8.51991 14.0562 8.23366 14.1746 8.02256 14.3856C7.81147 14.5965 7.69282 14.8827 7.69271 15.1811C7.6926 15.4795 7.81105 15.7658 8.022 15.9769C8.54435 16.4994 9.16451 16.9138 9.84706 17.1966C10.5296 17.4794 11.2612 17.6249 12 17.6249C12.7388 17.6249 13.4704 17.4794 14.1529 17.1966C14.8355 16.9138 15.4557 16.4994 15.978 15.9769Z" fill="black"/>
</svg>
