<svg width="24" height="24" viewBox="0 0 24 24" fill="none" xmlns="http://www.w3.org/2000/svg">
<path fill-rule="evenodd" clip-rule="evenodd" d="M18.5455 5H5.45455C4.06364 5 3 6.06364 3 7.45455V17.2727C3 18.6636 4.06364 19.7273 5.45455 19.7273H18.5455C19.9364 19.7273 21 18.6636 21 17.2727V7.45455C21 6.06364 19.9364 5 18.5455 5ZM5.45423 6.63636H18.5451C18.8724 6.63636 19.1179 6.8 19.2815 7.12727L11.9997 12.2L4.71786 7.12727C4.8815 6.8 5.12695 6.63636 5.45423 6.63636ZM4.63636 17.273C4.63636 17.764 4.96364 18.0912 5.45455 18.0912H18.5455C19.0364 18.0912 19.3636 17.764 19.3636 17.273V9.00941L12.4909 13.8367C12.3273 13.9185 12.1636 14.0003 12 14.0003C11.8364 14.0003 11.6727 13.9185 11.5091 13.8367L4.63636 9.00941V17.273Z" fill="black"/>
</svg>
