<svg width="24" height="24" viewBox="0 0 24 24" fill="none" xmlns="http://www.w3.org/2000/svg">
<path d="M14.7003 12.3003C14.7003 13.0165 14.4158 13.7033 13.9094 14.2096C13.403 14.716 12.7163 15.0005 12.0001 15.0005C11.284 15.0005 10.5972 14.716 10.0908 14.2096C9.58446 13.7033 9.29998 13.0165 9.29998 12.3003C9.29998 11.5842 9.58446 10.8974 10.0908 10.3911C10.5972 9.88468 11.284 9.6002 12.0001 9.6002C12.7163 9.6002 13.403 9.88468 13.9094 10.3911C14.4158 10.8974 14.7003 11.5842 14.7003 12.3003Z" fill="black"/>
<path d="M20.9051 11.898C18.9628 8.01251 15.5138 6 12 6C8.48711 6 5.03723 8.01251 3.09492 11.898C3.0325 12.0229 3 12.1607 3 12.3003C3 12.44 3.0325 12.5777 3.09492 12.7027C5.03723 16.5882 8.48621 18.6007 12 18.6007C15.5129 18.6007 18.9628 16.5882 20.9051 12.7027C20.9675 12.5777 21 12.44 21 12.3003C21 12.1607 20.9675 12.0229 20.9051 11.898ZM12 16.8006C9.32776 16.8006 6.59791 15.3425 4.91662 12.3003C6.59791 9.25817 9.32686 7.8001 12 7.8001C14.6722 7.8001 17.4021 9.25817 19.0834 12.3003C17.4021 15.3425 14.6722 16.8006 12 16.8006Z" fill="black"/>
</svg>
