<svg width="24" height="24" viewBox="0 0 24 24" fill="none" xmlns="http://www.w3.org/2000/svg">
<path d="M20.01 3H3.99C3.72744 3 3.47563 3.1043 3.28996 3.28996C3.1043 3.47563 3 3.72744 3 3.99V20.01C3 20.14 3.02561 20.2687 3.07536 20.3889C3.12511 20.509 3.19803 20.6181 3.28996 20.71C3.38189 20.802 3.49103 20.8749 3.61114 20.9246C3.73126 20.9744 3.85999 21 3.99 21H12.612V14.025H10.272V11.325H12.612V9.3C12.5635 8.82458 12.6197 8.34431 12.7764 7.89288C12.9332 7.44145 13.1869 7.02979 13.5196 6.68677C13.8523 6.34375 14.2561 6.07768 14.7025 5.90721C15.149 5.73675 15.6273 5.66603 16.104 5.7C16.8045 5.69569 17.5047 5.73175 18.201 5.808V8.238H16.77C15.636 8.238 15.42 8.778 15.42 9.561V11.298H18.12L17.769 13.998H15.42V21H20.01C20.14 21 20.2687 20.9744 20.3889 20.9246C20.509 20.8749 20.6181 20.802 20.71 20.71C20.802 20.6181 20.8749 20.509 20.9246 20.3889C20.9744 20.2687 21 20.14 21 20.01V3.99C21 3.85999 20.9744 3.73126 20.9246 3.61114C20.8749 3.49103 20.802 3.38189 20.71 3.28996C20.6181 3.19803 20.509 3.12511 20.3889 3.07536C20.2687 3.02561 20.14 3 20.01 3Z" fill="black"/>
</svg>
