<svg width="24" height="24" viewBox="0 0 24 24" fill="none" xmlns="http://www.w3.org/2000/svg">
<path fill-rule="evenodd" clip-rule="evenodd" d="M18.0833 4.06364C18.3333 3.81818 18.6667 3.73636 19 3.9C19.3333 4.06364 19.5 4.30909 19.5 4.63636V14.4545C19.5 14.7 19.4167 14.8636 19.25 15.0273C19.0833 15.1909 18 16.0909 15.3333 16.0909C14.0281 16.0909 12.9351 15.6742 11.9239 15.2887C11.8376 15.2558 11.7519 15.2231 11.6667 15.1909C11.4749 15.1281 11.2862 15.0624 11.0987 14.997C10.3089 14.7218 9.54223 14.4545 8.66667 14.4545C7.33333 14.4545 6.5 14.7 6.16667 14.8636V20.1818C6.16667 20.6727 5.83333 21 5.33333 21C4.83333 21 4.5 20.6727 4.5 20.1818V4.63636C4.5 4.39091 4.58333 4.22727 4.75 4.06364C4.91667 3.9 6 3 8.66667 3C10.0833 3 11.25 3.40909 12.3333 3.9C12.5251 3.96277 12.7138 4.02854 12.9013 4.09387C13.6911 4.36914 14.4578 4.63636 15.3333 4.63636C17.3333 4.63636 18.0833 4.06364 18.0833 4.06364Z" fill="black"/>
</svg>
