<svg width="24" height="24" viewBox="0 0 24 24" fill="none" xmlns="http://www.w3.org/2000/svg">
<path fill-rule="evenodd" clip-rule="evenodd" d="M11.2217 3.0448C9.93885 3.17118 8.35321 3.70796 7.27826 4.37983C6.36787 4.94879 5.46987 5.74684 4.90096 6.49249C3.0424 8.92861 2.51419 11.9717 3.46007 14.7946C4.14496 16.8387 5.43299 18.4665 7.27826 19.6197C8.09589 20.1307 9.43543 20.6501 10.4036 20.8314C12.401 21.2055 14.5741 20.9495 16.2888 20.1382C18.3443 19.1656 19.7789 17.5445 20.5096 15.3688C20.9395 14.0887 21.105 12.4583 20.9329 11.1983C20.8989 10.9497 20.871 10.7416 20.8708 10.7359C20.8706 10.7303 18.9166 10.7257 16.5285 10.7257H12.1866V12.2669V13.8082H14.8075H17.4284L17.4036 13.9418C17.3463 14.2514 17.12 14.8379 16.9398 15.144C16.1489 16.4868 15.0415 17.2608 13.432 17.5957C12.9083 17.7046 11.7285 17.7263 11.2217 17.6364C10.0663 17.4312 9.04176 16.8969 8.17983 16.0499C7.0492 14.9389 6.48169 13.5854 6.48169 11.9998C6.48169 10.4139 7.04895 9.06132 8.18017 7.95012C8.69554 7.44385 9.08803 7.16346 9.69775 6.86597C10.4282 6.50963 11.0833 6.34481 11.9348 6.3031C13.3401 6.23434 14.6851 6.67008 15.6684 7.51273L15.857 7.67438L16.5074 7.06482C16.8651 6.72956 17.4221 6.20487 17.7451 5.89887L18.3324 5.34249L18.1436 5.17131C17.6271 4.70301 16.6855 4.09525 15.9856 3.77845C14.6146 3.15787 12.843 2.88504 11.2217 3.0448Z" fill="black"/>
</svg>
