<svg width="24" height="24" viewBox="0 0 24 24" fill="none" xmlns="http://www.w3.org/2000/svg">
<path fill-rule="evenodd" clip-rule="evenodd" d="M3 9.88923C3 6.92335 5.06061 4 8.33571 4C9.86614 4 11.1676 4.63 12 5.22732C12.8324 4.63 14.1339 4 15.6643 4C18.9394 4 21 6.92335 21 9.88923C21 12.4266 19.9712 14.2338 18.3734 15.7498C17.0722 16.9844 15.3455 18.0652 13.5032 19.2184C13.1659 19.4295 12.8248 19.6431 12.4816 19.8604C12.1876 20.0467 11.8124 20.0467 11.5184 19.8604C11.1752 19.6431 10.8341 19.4295 10.4968 19.2184C8.65447 18.0652 6.92783 16.9844 5.62658 15.7498C4.02881 14.2338 3 12.4266 3 9.88923ZM8.33571 5.8C6.32519 5.8 4.8 7.62349 4.8 9.88923C4.8 11.8361 5.54923 13.1951 6.86549 14.444C8.024 15.5432 9.56652 16.5101 11.4157 17.6692C11.6072 17.7893 11.802 17.9114 12 18.0359C12.198 17.9114 12.3928 17.7893 12.5843 17.6692C14.4335 16.5101 15.976 15.5432 17.1345 14.444C18.4508 13.1951 19.2 11.8361 19.2 9.88923C19.2 7.62349 17.6748 5.8 15.6643 5.8C14.2692 5.8 13.0862 6.58505 12.6338 7.03373C12.2829 7.38175 11.7171 7.38175 11.3662 7.03373C10.9138 6.58505 9.73084 5.8 8.33571 5.8Z" fill="black"/>
</svg>
