<svg width="24" height="24" viewBox="0 0 24 24" fill="none" xmlns="http://www.w3.org/2000/svg">
<path fill-rule="evenodd" clip-rule="evenodd" d="M5.98086 5.66266C9.53108 2.11245 15.2871 2.11245 18.8373 5.66266C22.3876 9.21288 22.3876 14.9689 18.8373 18.5191C15.2871 22.0694 9.53108 22.0694 5.98086 18.5191C5.62584 18.1641 5.62584 17.5885 5.98086 17.2335C6.33588 16.8785 6.91148 16.8785 7.26651 17.2335C10.1067 20.0737 14.7115 20.0737 17.5517 17.2335C20.3919 14.3933 20.3919 9.78849 17.5517 6.94831C14.7115 4.10814 10.1067 4.10814 7.26651 6.94831C5.94459 8.27022 5.23809 9.97279 5.14659 11.7041L5.40261 11.4481C5.75762 11.0931 6.33322 11.093 6.68825 11.4481C7.04329 11.8031 7.0433 12.3787 6.68829 12.7337L4.87022 14.5519C4.69974 14.7224 4.46851 14.8182 4.22741 14.8182C3.9863 14.8182 3.75507 14.7224 3.58457 14.5519L1.76629 12.7337C1.41125 12.3787 1.41124 11.8031 1.76625 11.4481C2.12126 11.0931 2.69686 11.093 3.0519 11.4481L3.32565 11.7218C3.41464 9.52087 4.29986 7.34366 5.98086 5.66266ZM11.5 7.54545C12.0021 7.54545 12.4091 7.95247 12.4091 8.45454V12.0909H16.0454C16.5475 12.0909 16.9545 12.4979 16.9545 13C16.9545 13.5021 16.5475 13.9091 16.0454 13.9091H11.5C10.9979 13.9091 10.5909 13.5021 10.5909 13V8.45454C10.5909 7.95247 10.9979 7.54545 11.5 7.54545Z" fill="black"/>
</svg>
