<svg width="24" height="24" viewBox="0 0 24 24" fill="none" xmlns="http://www.w3.org/2000/svg">
<path d="M13.0305 3.37814C12.752 3.13531 12.3833 3 12 3C11.6167 3 11.248 3.13531 10.9695 3.37814L3.7035 9.71139C3.48102 9.90555 3.30387 10.1396 3.1829 10.3991C3.06194 10.6586 2.9997 10.9382 3 11.2207V18.9263C3.0004 19.4764 3.23763 20.0038 3.65954 20.3927C4.08145 20.7816 4.65352 21 5.25 21H7.5C8.09674 21 9.75 20.9843 9.75 20.9843C9.75 20.9843 9.75 19.4752 9.75 18.9249V15.4664C9.75 15.2829 9.82902 15.107 9.96967 14.9773C10.1103 14.8475 10.3011 14.7747 10.5 14.7747H13.5C13.6989 14.7747 13.8897 14.8475 14.0303 14.9773C14.171 15.107 14.25 15.2829 14.25 15.4664V18.9249C14.25 19.4752 14.25 20.9843 14.25 20.9843C14.25 20.9843 15.9033 21 16.5 21H18.75C19.3467 21 19.919 20.7814 20.341 20.3922C20.7629 20.0031 21 19.4752 21 18.9249V11.2193C20.9999 10.9369 20.9373 10.6576 20.8161 10.3983C20.6949 10.139 20.5176 9.90527 20.295 9.71139L13.0305 3.37538V3.37814Z" fill="black"/>
</svg>
