<svg width="24" height="24" viewBox="0 0 24 24" fill="none" xmlns="http://www.w3.org/2000/svg">
<path fill-rule="evenodd" clip-rule="evenodd" d="M3.84847 3.84925C4.39197 3.30566 5.12944 3 5.89872 3H18.1013C18.8706 3 19.608 3.30566 20.1515 3.84925C20.695 4.39279 21 5.12966 21 5.89768V18.1023C21 18.8703 20.695 19.6072 20.1515 20.1507C19.608 20.6943 18.8706 21 18.1013 21H5.89872C5.12944 21 4.39197 20.6943 3.84847 20.1507C3.30503 19.6072 3 18.8703 3 18.1023V16.0683C3 16.0682 3 16.0684 3 16.0683V5.89768C3 5.12966 3.30503 4.39279 3.84847 3.84925ZM4.72992 16.4255V18.1023C4.72992 18.4133 4.85343 18.7112 5.07279 18.9306C5.2921 19.1499 5.58923 19.2729 5.89872 19.2729H18.1013C18.4108 19.2729 18.7079 19.1499 18.9272 18.9306C19.1466 18.7111 19.2701 18.4133 19.2701 18.1023V14.3914L17.9102 13.0312C17.9102 13.0312 17.9102 13.0313 17.9102 13.0312C17.6909 12.812 17.3938 12.6891 17.0844 12.6891C16.775 12.6891 16.4779 12.812 16.2586 13.0312L15.2559 14.0341L16.6797 15.4581C17.0172 15.7957 17.0167 16.3424 16.6786 16.6794C16.3405 17.0163 15.7928 17.0159 15.4554 16.6783L10.792 12.0142C10.5727 11.7949 10.2757 11.672 9.96624 11.672C9.65681 11.672 9.35974 11.7949 9.14044 12.0142L4.72992 16.4255ZM14.0338 12.8117L12.0163 10.7939C11.4728 10.2505 10.7354 9.94487 9.96624 9.94487C9.19711 9.94487 8.45978 10.2504 7.9163 10.7938L4.72992 13.9807V5.89768C4.72992 5.58674 4.85343 5.28885 5.07279 5.06945C5.2921 4.8501 5.58923 4.72715 5.89872 4.72715H18.1013C18.4108 4.72715 18.7079 4.8501 18.9272 5.06945C19.1466 5.28885 19.2701 5.58674 19.2701 5.89768V11.9466L19.1344 11.811C18.591 11.2676 17.8535 10.9619 17.0844 10.9619C16.3153 10.9619 15.5779 11.2675 15.0345 11.8109L14.0338 12.8117ZM13.1688 7.93179C13.1688 7.45485 13.5561 7.06821 14.0338 7.06821H14.0439C14.5216 7.06821 14.9089 7.45485 14.9089 7.93179C14.9089 8.40873 14.5216 8.79536 14.0439 8.79536H14.0338C13.5561 8.79536 13.1688 8.40873 13.1688 7.93179Z" fill="black"/>
</svg>
