<svg width="24" height="24" viewBox="0 0 24 24" fill="none" xmlns="http://www.w3.org/2000/svg">
<path fill-rule="evenodd" clip-rule="evenodd" d="M18.3 3H5.7C4.17 3 3 4.17 3 5.7V18.3C3 19.83 4.17 21 5.7 21H18.3C19.83 21 21 19.83 21 18.3V5.7C21 4.17 19.83 3 18.3 3ZM4.8 5.7C4.8 5.16 5.16 4.8 5.7 4.8H18.3C18.84 4.8 19.2 5.16 19.2 5.7V12.54L16.23 9.57C15.87 9.21 15.33 9.21 14.97 9.57L5.43 19.11C5.07 19.02 4.8 18.66 4.8 18.3V5.7ZM8.85 11.1C10.11 11.1 11.1 10.11 11.1 8.85C11.1 7.59 10.11 6.6 8.85 6.6C7.59 6.6 6.6 7.59 6.6 8.85C6.6 10.11 7.59 11.1 8.85 11.1Z" fill="black"/>
</svg>
