<svg width="24" height="24" viewBox="0 0 24 24" fill="none" xmlns="http://www.w3.org/2000/svg">
<path fill-rule="evenodd" clip-rule="evenodd" d="M21 12C21 16.9706 16.9706 21 12 21C7.02942 21 3 16.9706 3 12C3 7.02945 7.02942 3 12 3C16.9706 3 21 7.02945 21 12ZM13 12V8C13 7.39999 12.6 7 12 7C11.4 7 11 7.39999 11 8V12C11 12.6 11.4 13 12 13C12.6 13 13 12.6 13 12ZM12 17C12.5523 17 13 16.5523 13 16C13 15.4477 12.5523 15 12 15C11.4477 15 11 15.4477 11 16C11 16.5523 11.4477 17 12 17Z" fill="black"/>
</svg>
