<svg width="24" height="24" viewBox="0 0 24 24" fill="none" xmlns="http://www.w3.org/2000/svg">
<path fill-rule="evenodd" clip-rule="evenodd" d="M8 3H16C18.7143 3 21 5.28571 21 8V16C21 18.7143 18.7143 21 16 21H8C5.28571 21 3 18.7143 3 16V8C3 5.28571 5.28571 3 8 3ZM17.8571 7.28571C17.8571 7.85714 17.2857 8.28571 16.7143 8.28571C16.5821 8.28884 16.4507 8.26512 16.3279 8.21597C16.2052 8.16682 16.0937 8.09328 16.0002 7.99979C15.9067 7.9063 15.8332 7.79481 15.784 7.67207C15.7349 7.54933 15.7112 7.41789 15.7143 7.28571C15.7143 6.57143 16.1429 6.14286 16.7143 6.14286C16.865 6.14074 17.0145 6.16886 17.1541 6.22554C17.2937 6.28223 17.4206 6.36633 17.5271 6.47288C17.6337 6.57943 17.7178 6.70626 17.7745 6.84587C17.8311 6.98549 17.8593 7.13505 17.8571 7.28571ZM12 15C11.2057 14.9955 10.4453 14.678 9.88365 14.1163C9.32202 13.5547 9.0045 12.7943 9 12C8.99041 11.6034 9.06145 11.209 9.20882 10.8407C9.35618 10.4724 9.57681 10.1378 9.85732 9.85732C10.1378 9.57681 10.4724 9.35618 10.8407 9.20882C11.209 9.06145 11.6034 8.99041 12 9C12.7943 9.0045 13.5547 9.32202 14.1163 9.88365C14.678 10.4453 14.9955 11.2057 15 12C15 13.5714 13.5714 15 12 15ZM12 7.42857C11.3975 7.4207 10.7995 7.53357 10.2413 7.76052C9.68313 7.98746 9.17605 8.3239 8.74997 8.74997C8.3239 9.17605 7.98746 9.68313 7.76052 10.2413C7.53357 10.7995 7.4207 11.3975 7.42857 12C7.4207 12.6025 7.53357 13.2005 7.76052 13.7587C7.98746 14.3169 8.3239 14.824 8.74997 15.25C9.17605 15.6761 9.68313 16.0125 10.2413 16.2395C10.7995 16.4664 11.3975 16.5793 12 16.5714C12.6025 16.5793 13.2005 16.4664 13.7587 16.2395C14.3169 16.0125 14.824 15.6761 15.25 15.25C15.6761 14.824 16.0125 14.3169 16.2395 13.7587C16.4664 13.2005 16.5793 12.6025 16.5714 12C16.5793 11.3975 16.4664 10.7995 16.2395 10.2413C16.0125 9.68313 15.6761 9.17605 15.25 8.74997C14.824 8.3239 14.3169 7.98746 13.7587 7.76052C13.2005 7.53357 12.6025 7.4207 12 7.42857Z" fill="black"/>
</svg>
