<svg width="24" height="24" viewBox="0 0 24 24" fill="none" xmlns="http://www.w3.org/2000/svg">
<path fill-rule="evenodd" clip-rule="evenodd" d="M3.432 9.04812H7.03196V21H3.432V9.04812ZM5.15998 3.00018C5.46361 2.99632 5.76495 3.05327 6.04623 3.16768C6.32751 3.2821 6.58304 3.45166 6.79776 3.66638C7.01247 3.8811 7.18204 4.13663 7.29645 4.41791C7.41087 4.69919 7.46782 5.00053 7.46395 5.30416C7.46395 6.45615 6.45596 7.46414 5.15998 7.46414C4.59149 7.45026 4.05011 7.21823 3.64801 6.81613C3.24591 6.41402 3.01388 5.87265 3 5.30416C3 4.00817 4.00799 3.00018 5.15998 3.00018ZM13.0799 15.2401V21H9.47993V9.04812H12.9359V10.6321C13.5119 10.4881 13.9439 8.76013 16.5359 8.76013C20.9998 8.76013 20.9998 12.2161 20.9998 15.5281V21H17.3999V14.5201C17.3999 12.9361 16.8239 12.0721 15.2399 12.0721C13.5119 12.0721 13.0799 13.6561 13.0799 15.2401Z" fill="black"/>
</svg>
