<svg width="24" height="24" viewBox="0 0 24 24" fill="none" xmlns="http://www.w3.org/2000/svg">
<path fill-rule="evenodd" clip-rule="evenodd" d="M17.6 10.3636H16.8V7.90909C16.8 5.20909 14.64 3 12 3C9.36 3 7.2 5.20909 7.2 7.90909V10.3636H6.4C5.04 10.3636 4 11.4273 4 12.8182V18.5455C4 19.9364 5.04 21 6.4 21H17.6C18.96 21 20 19.9364 20 18.5455V12.8182C20 11.4273 18.96 10.3636 17.6 10.3636ZM8.8 7.90909C8.8 6.10909 10.24 4.63636 12 4.63636C13.76 4.63636 15.2 6.10909 15.2 7.90909V10.3636H8.8V7.90909Z" fill="black"/>
</svg>
