<svg width="24" height="24" viewBox="0 0 24 24" fill="none" xmlns="http://www.w3.org/2000/svg">
<path d="M3 6.125C3 5.82663 3.11853 5.54048 3.32951 5.32951C3.54048 5.11853 3.82663 5 4.125 5H19.875C20.1734 5 20.4595 5.11853 20.6705 5.32951C20.8815 5.54048 21 5.82663 21 6.125C21 6.42337 20.8815 6.70952 20.6705 6.9205C20.4595 7.13147 20.1734 7.25 19.875 7.25H4.125C3.82663 7.25 3.54048 7.13147 3.32951 6.9205C3.11853 6.70952 3 6.42337 3 6.125ZM3 11.75C3 11.4516 3.11853 11.1655 3.32951 10.9545C3.54048 10.7435 3.82663 10.625 4.125 10.625H19.875C20.1734 10.625 20.4595 10.7435 20.6705 10.9545C20.8815 11.1655 21 11.4516 21 11.75C21 12.0484 20.8815 12.3345 20.6705 12.5455C20.4595 12.7565 20.1734 12.875 19.875 12.875H4.125C3.82663 12.875 3.54048 12.7565 3.32951 12.5455C3.11853 12.3345 3 12.0484 3 11.75ZM3 17.375C3 17.0766 3.11853 16.7905 3.32951 16.5795C3.54048 16.3685 3.82663 16.25 4.125 16.25H19.875C20.1734 16.25 20.4595 16.3685 20.6705 16.5795C20.8815 16.7905 21 17.0766 21 17.375C21 17.6734 20.8815 17.9595 20.6705 18.1705C20.4595 18.3815 20.1734 18.5 19.875 18.5H4.125C3.82663 18.5 3.54048 18.3815 3.32951 18.1705C3.11853 17.9595 3 17.6734 3 17.375Z" fill="black"/>
</svg>
