<svg width="24" height="24" viewBox="0 0 24 24" fill="none" xmlns="http://www.w3.org/2000/svg">
<path d="M13.9963 11.3211V5.83752C13.9963 4.21857 12.9344 3 11.3589 3C9.80089 3 8.72159 4.19246 8.72159 5.76789V6.03772L13.9963 11.3211ZM18.7574 18.8762C18.9663 19.0851 19.297 19.0851 19.4972 18.8762C19.7061 18.6847 19.6974 18.3453 19.4972 18.1451L5.23997 3.89652C5.04848 3.69632 4.70031 3.69632 4.50012 3.89652C4.29993 4.09671 4.29993 4.43617 4.50012 4.63636L18.7574 18.8762ZM7.35505 19.9816C7.07652 19.9816 6.84151 20.2253 6.84151 20.4952C6.84151 20.765 7.07652 21 7.35505 21H15.3628C15.6326 21 15.8676 20.765 15.8676 20.4952C15.8676 20.2253 15.6326 19.9816 15.3628 19.9816H11.8638V17.6925C13.1346 17.6054 14.2226 17.1789 15.0581 16.5L14.3357 15.7776C13.5698 16.3956 12.5514 16.7524 11.3589 16.7524C8.50399 16.7524 6.56298 14.7592 6.56298 12.0435V10.1721C6.56298 9.8588 6.36279 9.65861 6.06685 9.65861C5.77091 9.65861 5.57072 9.8588 5.57072 10.1721V12.0435C5.57072 15.177 7.6597 17.4749 10.8454 17.6925V19.9816H7.35505ZM17.1384 10.1721C17.1384 9.8588 16.9382 9.65861 16.6423 9.65861C16.3464 9.65861 16.1462 9.8588 16.1462 10.1721V12.0435C16.1462 12.4874 16.0852 12.9139 15.9808 13.3056L16.799 14.1238C17.0166 13.4884 17.1384 12.7921 17.1384 12.0435V10.1721ZM12.8038 14.2456L8.72159 10.1547V11.913C8.72159 13.5319 9.78349 14.7418 11.3589 14.7418C11.9334 14.7418 12.4295 14.559 12.8038 14.2456Z" fill="black"/>
</svg>
