<svg width="24" height="24" viewBox="0 0 24 24" fill="none" xmlns="http://www.w3.org/2000/svg">
<path d="M15.375 6.19149C15.375 4.42888 13.864 3 12 3C10.136 3 8.625 4.42888 8.625 6.19149V11.0585C8.625 12.8211 10.136 14.25 12 14.25C13.864 14.25 15.375 12.8211 15.375 11.0585V6.19149Z" fill="black"/>
<path d="M18.75 11.6538C18.75 11.4473 18.6611 11.2492 18.5029 11.1031C18.3446 10.9571 18.13 10.875 17.9062 10.875C17.6825 10.875 17.4679 10.9571 17.3096 11.1031C17.1514 11.2492 17.0625 11.4473 17.0625 11.6538C17.0625 12.8932 16.5291 14.0818 15.5797 14.9582C14.6303 15.8346 13.3427 16.3269 12 16.3269C10.6573 16.3269 9.36968 15.8346 8.42027 14.9582C7.47087 14.0818 6.9375 12.8932 6.9375 11.6538C6.9375 11.4473 6.84861 11.2492 6.69037 11.1031C6.53214 10.9571 6.31753 10.875 6.09375 10.875C5.86997 10.875 5.65536 10.9571 5.49713 11.1031C5.33889 11.2492 5.25 11.4473 5.25 11.6538C5.25275 13.1702 5.85391 14.6336 6.94099 15.7704C8.02808 16.9072 9.52662 17.6394 11.1562 17.8301V19.4423H9.46875C9.24497 19.4423 9.03036 19.5244 8.87213 19.6704C8.7139 19.8165 8.625 20.0146 8.625 20.2212C8.625 20.4277 8.7139 20.6258 8.87213 20.7719C9.03036 20.9179 9.24497 21 9.46875 21H14.5312C14.755 21 14.9696 20.9179 15.1279 20.7719C15.2861 20.6258 15.375 20.4277 15.375 20.2212C15.375 20.0146 15.2861 19.8165 15.1279 19.6704C14.9696 19.5244 14.755 19.4423 14.5312 19.4423H12.8438V17.8301C14.4734 17.6394 15.9719 16.9072 17.059 15.7704C18.1461 14.6336 18.7472 13.1702 18.75 11.6538Z" fill="black"/>
</svg>
