<svg width="24" height="24" viewBox="0 0 24 24" fill="none" xmlns="http://www.w3.org/2000/svg">
<path d="M11.01 13.4433C11.1 13.5333 11.1 13.7133 11.1 13.8033V19.2033C11.1 19.7433 10.74 20.1033 10.2 20.1033C9.66 20.1033 9.3 19.7433 9.3 19.2033V15.9633L4.53 20.7333C4.35 20.9133 4.17 21.0033 3.9 21.0033C3.63 21.0033 3.45 20.9133 3.27 20.7333C2.91 20.3733 2.91 19.8333 3.27 19.4733L8.04 14.7033H4.8C4.26 14.7033 3.9 14.3433 3.9 13.8033C3.9 13.2633 4.26 12.9033 4.8 12.9033H10.2C10.29 12.9033 10.47 12.9033 10.56 12.9933C10.74 13.0833 10.92 13.2633 11.01 13.4433Z" fill="black"/>
<path d="M20.7304 3.27342C20.3704 2.91342 19.8304 2.91342 19.4704 3.27342L14.7004 8.04342V4.80342C14.7004 4.26342 14.3404 3.90342 13.8004 3.90342C13.2604 3.90342 12.9004 4.26342 12.9004 4.80342V10.2034C12.9004 10.2934 12.9004 10.4734 12.9904 10.5634C13.0804 10.7434 13.2604 10.9234 13.4404 11.0134C13.5304 11.1034 13.7104 11.1034 13.8004 11.1034H19.2004C19.7404 11.1034 20.1004 10.7434 20.1004 10.2034C20.1004 9.66342 19.7404 9.30342 19.2004 9.30342H15.9604L20.7304 4.53342C21.0904 4.17342 21.0904 3.63342 20.7304 3.27342Z" fill="black"/>
</svg>
