<svg width="24" height="24" viewBox="0 0 24 24" fill="none" xmlns="http://www.w3.org/2000/svg">
<path d="M7.99821 6C8.52847 6 9.03701 6.21146 9.41196 6.58786C9.78691 6.96426 9.99755 7.47476 9.99755 8.00707V15.0301C9.99755 15.2937 9.94583 15.5546 9.84534 15.798C9.74485 16.0415 9.59756 16.2627 9.41189 16.4489C9.22622 16.6352 9.0058 16.783 8.76324 16.8837C8.52068 16.9844 8.26072 17.0362 7.99821 17.0361C7.46826 17.0361 6.96001 16.8247 6.58527 16.4485C6.21054 16.0724 6 15.5621 6 15.0301V8.00707C6 7.47496 6.2105 6.96463 6.5852 6.58826C6.95991 6.21189 7.46815 6.0003 7.99821 6Z" fill="black"/>
<path d="M16.0007 6C16.5309 6 17.0395 6.21146 17.4144 6.58786C17.7894 6.96426 18 7.47476 18 8.00707V15.0301C18 15.2937 17.9483 15.5546 17.8478 15.798C17.7473 16.0415 17.6 16.2627 17.4143 16.4489C17.2287 16.6352 17.0083 16.783 16.7657 16.8837C16.5231 16.9844 16.2632 17.0362 16.0007 17.0361C15.4707 17.0361 14.9625 16.8247 14.5877 16.4485C14.213 16.0724 14.0025 15.5621 14.0025 15.0301V8.00707C14.0025 7.47496 14.213 6.96463 14.5877 6.58826C14.9624 6.21189 15.4706 6.0003 16.0007 6Z" fill="black"/>
</svg>
