<svg width="24" height="24" viewBox="0 0 24 24" fill="none" xmlns="http://www.w3.org/2000/svg">
<path d="M3.27914 20.7177L3.28244 20.721C3.37011 20.8093 3.47438 20.8794 3.58924 20.9273C3.7041 20.9752 3.82729 20.9999 3.95173 21C4.05644 20.9999 4.16043 20.9827 4.25955 20.9489L9.65603 19.1183L20.0115 8.76276C20.6446 8.12965 21.0002 7.27098 21.0002 6.37566C21.0001 5.48034 20.6444 4.62171 20.0113 3.98865C19.3782 3.35559 18.5195 2.99996 17.6242 3C16.7289 3.00004 15.8703 3.35574 15.2372 3.98886L4.88171 14.3444L3.05124 19.7407C2.99358 19.9085 2.98438 20.0892 3.02468 20.262C3.06499 20.4348 3.15318 20.5927 3.27914 20.7177Z" fill="black"/>
</svg>
