<svg width="24" height="24" viewBox="0 0 24 24" fill="none" xmlns="http://www.w3.org/2000/svg">
<path d="M7.87365 16.5207L7.87206 16.5191C7.81125 16.4588 7.76868 16.3825 7.74922 16.2991C7.72976 16.2157 7.7342 16.1285 7.76204 16.0475L8.64571 13.4424L13.6449 8.44319C13.9505 8.13756 14.365 7.96584 14.7972 7.96582C15.2294 7.9658 15.6439 8.13748 15.9496 8.44309C16.2552 8.7487 16.4269 9.16321 16.427 9.59543C16.427 10.0277 16.2553 10.4422 15.9497 10.7478L10.9505 15.747L8.34535 16.6307C8.29751 16.647 8.24731 16.6553 8.19676 16.6554C8.13668 16.6553 8.07721 16.6434 8.02176 16.6203C7.96631 16.5972 7.91598 16.5633 7.87365 16.5207Z" fill="black"/>
<path fill-rule="evenodd" clip-rule="evenodd" d="M3 12C3 7.02944 7.02944 3 12 3C16.9706 3 21 7.02944 21 12C21 16.9706 16.9706 21 12 21C7.02944 21 3 16.9706 3 12ZM12 19.5C7.85786 19.5 4.5 16.1421 4.5 12C4.5 7.85786 7.85786 4.5 12 4.5C16.1421 4.5 19.5 7.85786 19.5 12C19.5 16.1421 16.1421 19.5 12 19.5Z" fill="black"/>
</svg>
