<svg width="24" height="24" viewBox="0 0 24 24" fill="none" xmlns="http://www.w3.org/2000/svg">
<path fill-rule="evenodd" clip-rule="evenodd" d="M9.90806 4.17822C8.40042 4.17822 7.17822 5.40042 7.17822 6.90806V17.0919C7.17822 18.5996 8.4004 19.8218 9.90806 19.8218H15C16.5077 19.8218 17.7298 18.5996 17.7298 17.0919V6.90806C17.7298 5.4004 16.5077 4.17822 15 4.17822H9.90806ZM5 6.90806C5 4.19742 7.19742 2 9.90806 2H15C17.7107 2 19.9081 4.19743 19.9081 6.90806V17.0919C19.9081 19.8026 17.7107 22 15 22H9.90806C7.19743 22 5 19.8027 5 17.0919V6.90806ZM12.454 14.705C13.0555 14.705 13.5431 15.1926 13.5431 15.7941V15.819C13.5431 16.4205 13.0555 16.9081 12.454 16.9081C11.8525 16.9081 11.3649 16.4205 11.3649 15.819V15.7941C11.3649 15.1926 11.8525 14.705 12.454 14.705Z" fill="black"/>
</svg>
