<svg width="24" height="24" viewBox="0 0 24 24" fill="none" xmlns="http://www.w3.org/2000/svg">
<path d="M12 4.8C10.0904 4.8 8.25909 5.55857 6.90883 6.90883C5.55857 8.25909 4.8 10.0904 4.8 12C4.8 13.9096 5.55857 15.7409 6.90883 17.0912C8.25909 18.4414 10.0904 19.2 12 19.2C13.9096 19.2 15.7409 18.4414 17.0912 17.0912C18.4414 15.7409 19.2 13.9096 19.2 12C19.2 10.0904 18.4414 8.25909 17.0912 6.90883C15.7409 5.55857 13.9096 4.8 12 4.8ZM3 12C3 7.0293 7.0293 3 12 3C16.9707 3 21 7.0293 21 12C21 16.9707 16.9707 21 12 21C7.0293 21 3 16.9707 3 12ZM12 7.5C12.2387 7.5 12.4676 7.59482 12.6364 7.7636C12.8052 7.93239 12.9 8.1613 12.9 8.4V11.1H15.6C15.8387 11.1 16.0676 11.1948 16.2364 11.3636C16.4052 11.5324 16.5 11.7613 16.5 12C16.5 12.2387 16.4052 12.4676 16.2364 12.6364C16.0676 12.8052 15.8387 12.9 15.6 12.9H12.9V15.6C12.9 15.8387 12.8052 16.0676 12.6364 16.2364C12.4676 16.4052 12.2387 16.5 12 16.5C11.7613 16.5 11.5324 16.4052 11.3636 16.2364C11.1948 16.0676 11.1 15.8387 11.1 15.6V12.9H8.4C8.1613 12.9 7.93239 12.8052 7.7636 12.6364C7.59482 12.4676 7.5 12.2387 7.5 12C7.5 11.7613 7.59482 11.5324 7.7636 11.3636C7.93239 11.1948 8.1613 11.1 8.4 11.1H11.1V8.4C11.1 8.1613 11.1948 7.93239 11.3636 7.7636C11.5324 7.59482 11.7613 7.5 12 7.5Z" fill="black"/>
</svg>
