<svg width="24" height="24" viewBox="0 0 24 24" fill="none" xmlns="http://www.w3.org/2000/svg">
<path fill-rule="evenodd" clip-rule="evenodd" d="M11.9999 4.99997C10.8953 4.99997 9.99988 5.8954 9.99988 6.99997C9.99988 8.10454 10.8953 8.99997 11.9999 8.99997C13.1044 8.99997 13.9999 8.10454 13.9999 6.99997C13.9999 5.8954 13.1044 4.99997 11.9999 4.99997ZM7.99988 6.99997C7.99988 4.79083 9.79074 2.99997 11.9999 2.99997C14.209 2.99997 15.9999 4.79083 15.9999 6.99997C15.9999 9.20911 14.209 11 11.9999 11C9.79074 11 7.99988 9.20911 7.99988 6.99997ZM3 18C3 15.2385 5.23858 13 8 13H16C18.7614 13 21 15.2385 21 18C21 19.6568 19.6569 21 18 21H6C4.34315 21 3 19.6568 3 18ZM8 15C6.34315 15 5 16.3431 5 18C5 18.5523 5.44772 19 6 19H18C18.5523 19 19 18.5523 19 18C19 16.3431 17.6569 15 16 15H8Z" fill="black"/>
</svg>
