<svg width="24" height="24" viewBox="0 0 24 24" fill="none" xmlns="http://www.w3.org/2000/svg">
<path fill-rule="evenodd" clip-rule="evenodd" d="M18 8.98753C18 5.69439 15.3 3 12 3C8.7 3 6 5.69439 6 8.98753C6 10.9335 6.9 12.6549 8.325 13.7027L7.5 20.1393C7.425 20.4387 7.575 20.738 7.8 20.8877C8.025 21.0374 8.325 21.0374 8.625 20.8877L12 18.8669L15.375 20.8877C15.45 20.9626 15.6 20.9626 15.75 20.9626C15.9 20.9626 16.05 20.8877 16.125 20.8129C16.35 20.6632 16.5 20.3638 16.425 20.0644L15.6 13.7027C17.1 12.6549 18 10.9335 18 8.98753Z" fill="black"/>
</svg>
