<svg width="24" height="24" viewBox="0 0 24 24" fill="none" xmlns="http://www.w3.org/2000/svg">
<path fill-rule="evenodd" clip-rule="evenodd" d="M14.1838 4.03728C15.3275 5.2687 15.352 7.02431 14.8882 8.22238C14.461 9.3253 13.7206 10.2765 12.6018 11.2027C12.1722 11.5573 11.7246 11.8981 11.2944 12.2212C11.2952 12.2448 11.2951 12.2632 11.295 12.2741C11.295 12.2768 11.2949 12.2808 11.2949 12.2808C11.2949 12.8385 11.0183 13.3498 10.5699 13.6657V15.9699C10.5699 17.6489 11.943 19.0219 13.6219 19.0219C15.3014 19.0219 16.6739 17.6554 16.6739 15.9699V14.3565C15.7944 13.9666 15.2096 13.0999 15.2096 12.1315C15.2096 10.785 16.3146 9.69595 17.6665 9.69595C19.0183 9.69595 20.1233 10.785 20.1233 12.1315C20.1233 13.104 19.5407 13.9728 18.6591 14.3579V15.9699C18.6591 18.7403 16.4074 21 13.629 21H13.6219C10.8511 21 8.59183 18.7408 8.59183 15.9699V13.6656C8.15479 13.3569 7.89525 12.8658 7.87516 12.3145C7.40438 11.9624 6.91671 11.5926 6.44602 11.2026L6.44475 11.2015C5.32594 10.2679 4.59382 9.31719 4.16713 8.21583C3.76126 7.17392 3.65575 5.48903 4.73232 4.19536C4.74582 3.53148 5.30229 3.00711 5.95922 3.00711C6.62128 3.00711 7.18638 3.53449 7.18638 4.22005C7.18638 4.76005 6.82656 5.20076 6.33582 5.35927C5.79148 5.92876 5.74763 6.85953 6.00318 7.52567C6.2925 8.27385 6.81461 8.95755 7.70335 9.69738C8.11529 10.0332 8.54574 10.3644 8.99249 10.7034C9.35859 10.5651 9.73918 10.562 10.0914 10.6704C10.1293 10.6416 10.1671 10.6127 10.205 10.5837C10.588 10.2916 10.9749 9.99649 11.3433 9.69139C12.234 8.9502 12.7623 8.25951 13.0442 7.52008C13.3011 6.84488 13.2602 5.91292 12.7133 5.35154C12.1893 5.22731 11.7763 4.7764 11.7763 4.19872C11.7763 3.52434 12.3517 3 12.9893 3C13.5979 3 14.0997 3.44943 14.1838 4.03728Z" fill="black"/>
</svg>
