<svg width="24" height="24" viewBox="0 0 24 24" fill="none" xmlns="http://www.w3.org/2000/svg">
<path d="M5.78067 18C5.26022 16 5 14.2143 5 12.6429C5 10.5357 5.5031 8.91071 6.50929 7.76786C7.51549 6.58929 8.97274 6 10.881 6V8.51786C9.97893 8.51786 9.3197 8.78571 8.90335 9.32143C8.52169 9.82143 8.33086 10.6071 8.33086 11.6786V12.8036H11.1413V18H5.78067ZM13.6394 18C13.1537 16.1429 12.9108 14.3571 12.9108 12.6429C12.9108 10.5357 13.3965 8.91071 14.368 7.76786C15.3742 6.58929 16.8315 6 18.7398 6V8.51786C17.0397 8.51786 16.1896 9.57143 16.1896 11.6786V12.8036H19V18H13.6394Z" fill="black"/>
</svg>
