<svg width="24" height="24" viewBox="0 0 24 24" fill="none" xmlns="http://www.w3.org/2000/svg">
<path fill-rule="evenodd" clip-rule="evenodd" d="M11.0002 5C7.68639 5 5 7.68639 5 11.0002C5 14.314 7.68639 17.0004 11.0002 17.0004C12.6476 17.0004 14.1399 16.3366 15.2242 15.2618C15.2303 15.2554 15.2364 15.249 15.2427 15.2427C15.249 15.2364 15.2554 15.2303 15.2618 15.2242C16.3366 14.1399 17.0004 12.6476 17.0004 11.0002C17.0004 7.68639 14.314 5 11.0002 5ZM17.3202 15.906C18.3733 14.5513 19.0004 12.849 19.0004 11.0002C19.0004 6.58182 15.4186 3 11.0002 3C6.58182 3 3 6.58182 3 11.0002C3 15.4186 6.58182 19.0004 11.0002 19.0004C12.849 19.0004 14.5513 18.3733 15.906 17.3202L19.2929 20.7071C19.6834 21.0976 20.3166 21.0976 20.7071 20.7071C21.0976 20.3166 21.0976 19.6834 20.7071 19.2929L17.3202 15.906Z" fill="black"/>
</svg>
