<svg width="24" height="24" viewBox="0 0 24 24" fill="none" xmlns="http://www.w3.org/2000/svg">
<path fill-rule="evenodd" clip-rule="evenodd" d="M15.399 4.55322V6.16616H15.1307C14.9729 6.16616 14.8624 6.17966 14.8624 6.19893C14.8624 6.21859 14.7361 6.23169 14.5468 6.23169C14.3732 6.23169 14.2311 6.24434 14.2311 6.25981C14.2311 6.27524 14.0713 6.29831 13.876 6.31102C13.6807 6.32374 13.5162 6.34795 13.5104 6.36483C13.5046 6.3817 13.4471 6.39553 13.3826 6.39553C13.318 6.39553 13.2507 6.41067 13.2328 6.42919C13.215 6.44767 13.127 6.47185 13.0371 6.48289C12.9473 6.49393 12.8739 6.51566 12.8739 6.53116C12.8739 6.54669 12.8241 6.55937 12.7634 6.55937C12.7026 6.55937 12.6529 6.57274 12.6529 6.58906C12.6529 6.60541 12.5819 6.62891 12.4951 6.64129C12.4083 6.65368 12.3373 6.67717 12.3373 6.69352C12.3373 6.70984 12.3018 6.72321 12.2584 6.72321C12.215 6.72321 12.1794 6.7373 12.1794 6.7545C12.1794 6.77171 12.1262 6.79596 12.0611 6.80838C11.996 6.82079 11.9356 6.84069 11.9269 6.85251C11.9047 6.88282 11.6879 6.98535 11.646 6.98535C11.6269 6.98535 11.6113 6.99663 11.6113 7.01039C11.6113 7.0367 11.3809 7.14919 11.327 7.14919C11.3098 7.14919 11.2957 7.16047 11.2957 7.17423C11.2957 7.18799 11.2388 7.22482 11.1694 7.25605C11.1 7.28728 11.0431 7.32762 11.0431 7.3457C11.0431 7.36379 11.0147 7.37857 10.98 7.37857C10.9453 7.37857 10.9169 7.39295 10.9169 7.41052C10.9169 7.42808 10.8528 7.47278 10.7745 7.5098C10.6962 7.54683 10.6147 7.60617 10.5933 7.6417C10.572 7.67718 10.5373 7.70625 10.5162 7.70625C10.4951 7.70625 10.4423 7.74311 10.3989 7.78817C10.3555 7.83322 10.3062 7.87009 10.2892 7.87009C10.2723 7.87009 10.19 7.94375 10.1063 8.03376C10.0226 8.12378 9.94224 8.1975 9.92766 8.1976C9.89701 8.1978 9.46493 8.64292 9.46493 8.67431C9.46493 8.68584 9.39391 8.77055 9.30711 8.86259C9.22031 8.95461 9.14929 9.04373 9.14929 9.06064C9.14929 9.07755 9.11378 9.12552 9.07038 9.1673C9.02698 9.20905 8.99147 9.25935 8.99147 9.27911C8.99147 9.29886 8.95596 9.34916 8.91256 9.39091C8.86915 9.43269 8.83364 9.48358 8.83364 9.50406C8.83364 9.5245 8.82039 9.54125 8.80419 9.54125C8.788 9.54125 8.76468 9.57441 8.75234 9.61498C8.74003 9.65554 8.70559 9.71082 8.67582 9.73786C8.64606 9.76489 8.61162 9.82017 8.59931 9.86074C8.58697 9.90127 8.56365 9.93446 8.54745 9.93446C8.53126 9.93446 8.518 9.95658 8.518 9.98361C8.518 10.0106 8.5038 10.0328 8.48644 10.0328C8.46908 10.0328 8.45487 10.0615 8.45487 10.0967C8.45487 10.1318 8.43635 10.1724 8.41372 10.1868C8.37016 10.2145 8.26549 10.4274 8.26549 10.4883C8.26549 10.5081 8.25463 10.5243 8.24137 10.5243C8.21603 10.5243 8.10767 10.7635 8.10767 10.8194C8.10767 10.8373 8.0946 10.852 8.0786 10.852C8.06263 10.852 8.04025 10.896 8.02885 10.9499C8.01746 11.0037 7.99502 11.0562 7.97898 11.0665C7.96295 11.0768 7.94985 11.1212 7.94985 11.1652C7.94985 11.2092 7.93678 11.2452 7.92078 11.2452C7.90481 11.2452 7.88236 11.2894 7.87094 11.3435C7.85951 11.3975 7.83707 11.4418 7.8211 11.4418C7.80509 11.4418 7.79203 11.4786 7.79203 11.5237C7.79203 11.5688 7.77915 11.6056 7.76343 11.6056C7.74768 11.6056 7.72505 11.6794 7.71312 11.7695C7.70119 11.8596 7.67855 11.9333 7.6628 11.9333C7.64708 11.9333 7.63421 11.9702 7.63421 12.0152C7.63421 12.0603 7.62133 12.0971 7.60561 12.0971C7.58986 12.0971 7.56723 12.1709 7.5553 12.261C7.54336 12.3511 7.52073 12.4248 7.50498 12.4248C7.48926 12.4248 7.47639 12.4617 7.47639 12.5067C7.47639 12.5518 7.46382 12.5887 7.44848 12.5887C7.43317 12.5887 7.41073 12.6843 7.39867 12.8013C7.38662 12.9183 7.36364 13.0223 7.34767 13.0326C7.33166 13.0429 7.31856 13.0946 7.31856 13.1476C7.31856 13.2007 7.30584 13.244 7.29028 13.244C7.27472 13.244 7.25193 13.3621 7.23965 13.5064C7.22734 13.6506 7.20455 13.7768 7.18899 13.7868C7.17346 13.7968 7.16074 13.8618 7.16074 13.9314C7.16074 14.0009 7.14802 14.0627 7.13249 14.0687C7.11693 14.0747 7.09645 14.2713 7.08695 14.5056C7.07299 14.8495 7.07647 14.908 7.10491 14.8091C7.12429 14.7417 7.16605 14.6781 7.19777 14.6676C7.22949 14.6572 7.25544 14.6196 7.25544 14.5843C7.25544 14.5489 7.27674 14.5114 7.30278 14.5011C7.32882 14.4907 7.35013 14.4543 7.35013 14.4202C7.35013 14.386 7.36367 14.3581 7.38021 14.3581C7.39675 14.3581 7.43529 14.3028 7.46581 14.2352C7.49637 14.1677 7.53964 14.0929 7.56199 14.0691C7.58433 14.0453 7.60264 14.0082 7.60264 13.9867C7.60264 13.9653 7.63815 13.92 7.68155 13.8862C7.72495 13.8524 7.76046 13.8047 7.76046 13.7804C7.76046 13.756 7.78887 13.7177 7.82359 13.6952C7.85831 13.6727 7.88672 13.6278 7.88672 13.5956C7.88672 13.5633 7.90803 13.5284 7.93407 13.518C7.96011 13.5076 7.98141 13.4733 7.98141 13.4417C7.98141 13.4101 8.01692 13.3566 8.06032 13.3228C8.10372 13.2889 8.13923 13.2454 8.13923 13.226C8.13923 13.2066 8.18184 13.1484 8.23393 13.0966C8.28601 13.0448 8.32862 12.9857 8.32862 12.9654C8.32862 12.945 8.37833 12.8827 8.43909 12.8269C8.49985 12.771 8.54957 12.7095 8.54957 12.6901C8.54957 12.6708 8.63479 12.5673 8.73895 12.4602C8.84311 12.3531 8.92853 12.2533 8.92875 12.2386C8.92925 12.2051 9.32144 11.8022 9.35354 11.8022C9.36648 11.8022 9.45394 11.7211 9.54791 11.622C9.64188 11.5229 9.73641 11.4418 9.75797 11.4418C9.77953 11.4418 9.82381 11.4049 9.85642 11.3599C9.88899 11.3148 9.9365 11.2779 9.96194 11.2779C9.98738 11.2779 10.0361 11.2411 10.0703 11.196C10.1044 11.151 10.1495 11.1141 10.1705 11.1141C10.1914 11.1141 10.2286 11.0852 10.2532 11.0498C10.2778 11.0144 10.3383 10.9762 10.3878 10.9649C10.4373 10.9537 10.512 10.9089 10.5538 10.8654C10.5957 10.822 10.6578 10.7864 10.6919 10.7864C10.7259 10.7864 10.7585 10.7754 10.7643 10.7619C10.7809 10.7231 10.9686 10.6226 11.0243 10.6226C11.052 10.6226 11.0748 10.6115 11.075 10.598C11.0752 10.572 11.2253 10.4915 11.2735 10.4915C11.302 10.4915 11.4852 10.4135 11.5862 10.3583C11.6159 10.3421 11.6975 10.3194 11.7677 10.3077C11.8379 10.2961 11.8954 10.2737 11.8954 10.2579C11.8954 10.2422 11.93 10.2294 11.9724 10.2294C12.0148 10.2294 12.0575 10.2158 12.0675 10.1992C12.0773 10.1826 12.1776 10.1587 12.2903 10.1462C12.4029 10.1337 12.4951 10.1115 12.4951 10.097C12.4951 10.0824 12.6229 10.0601 12.7792 10.0474C12.9354 10.0347 13.0632 10.0115 13.0632 9.99577C13.0632 9.98008 13.1385 9.96723 13.2305 9.96723C13.3225 9.96723 13.4128 9.95163 13.4312 9.93256C13.4524 9.91061 13.819 9.89069 14.4318 9.87823L15.399 9.85857L15.3999 11.5759C15.4006 12.7585 15.4109 13.2753 15.4331 13.2358C15.4508 13.2043 15.4874 13.1785 15.5144 13.1785C15.5414 13.1785 15.5914 13.1416 15.6256 13.0966C15.6597 13.0515 15.7014 13.0146 15.7183 13.0146C15.7352 13.0146 15.7873 12.9778 15.834 12.9327C15.8809 12.8877 15.9306 12.8508 15.9447 12.8508C15.9587 12.8508 16.0031 12.8139 16.0433 12.7689C16.0835 12.7238 16.1291 12.687 16.1447 12.687C16.1602 12.687 16.2113 12.6501 16.2581 12.605C16.3049 12.56 16.3528 12.5231 16.3646 12.5231C16.3764 12.5231 16.4189 12.4863 16.4592 12.4412C16.4994 12.3961 16.5478 12.3593 16.5669 12.3593C16.5859 12.3593 16.6344 12.3224 16.6746 12.2774C16.7148 12.2323 16.7604 12.1954 16.776 12.1954C16.7915 12.1954 16.8426 12.1586 16.8894 12.1135C16.9361 12.0685 16.9841 12.0316 16.9959 12.0316C17.0077 12.0316 17.0502 11.9947 17.0905 11.9497C17.1307 11.9046 17.1791 11.8678 17.1982 11.8678C17.2172 11.8678 17.2656 11.8309 17.3058 11.7858C17.3461 11.7408 17.3917 11.7039 17.4073 11.7039C17.4228 11.7039 17.4738 11.6671 17.5206 11.622C17.5674 11.577 17.6205 11.5401 17.6387 11.5401C17.6568 11.5401 17.6716 11.5256 17.6716 11.5079C17.6716 11.4903 17.7044 11.4672 17.7445 11.4568C17.7845 11.4464 17.8433 11.4019 17.8751 11.3579C17.907 11.3139 17.9538 11.2779 17.9792 11.2779C18.0047 11.2779 18.0534 11.2411 18.0876 11.196C18.1217 11.151 18.1635 11.1141 18.1804 11.1141C18.1973 11.1141 18.2466 11.0772 18.29 11.0322C18.3334 10.9871 18.3862 10.9503 18.4073 10.9503C18.4285 10.9503 18.4724 10.9134 18.505 10.8683C18.5376 10.8233 18.5811 10.7864 18.6017 10.7864C18.6223 10.7864 18.6725 10.7496 18.7132 10.7045C18.754 10.6595 18.8028 10.6226 18.8217 10.6226C18.8406 10.6226 18.8827 10.5857 18.9153 10.5407C18.9479 10.4956 18.9954 10.4587 19.0209 10.4587C19.0463 10.4587 19.0951 10.4219 19.1292 10.3768C19.1633 10.3318 19.2091 10.2949 19.2308 10.2949C19.2526 10.2949 19.3037 10.258 19.3445 10.213C19.3853 10.1679 19.4323 10.1311 19.449 10.1311C19.4657 10.1311 19.5122 10.0942 19.5525 10.0492C19.5927 10.0041 19.6411 9.96723 19.6602 9.96723C19.6792 9.96723 19.7276 9.93037 19.7679 9.88531C19.8081 9.84026 19.8537 9.80339 19.8693 9.80339C19.8848 9.80339 19.9358 9.76653 19.9826 9.72147C20.0294 9.67642 20.0774 9.63955 20.0892 9.63955C20.101 9.63955 20.1435 9.60269 20.1837 9.55763C20.224 9.51258 20.2724 9.47571 20.2914 9.47571C20.3105 9.47571 20.3589 9.43885 20.3991 9.39379C20.4394 9.34874 20.4823 9.31187 20.4946 9.31187C20.5069 9.31187 20.5367 9.29343 20.5609 9.27091C20.6583 9.18021 20.7001 9.14803 20.7205 9.14803C20.7323 9.14803 20.7748 9.11117 20.815 9.06611C20.8552 9.02106 20.9086 8.98419 20.9336 8.98419C20.9586 8.98419 20.9873 8.96208 20.9973 8.93504C21.0073 8.90801 21.0433 8.88589 21.0774 8.88589C21.1117 8.88589 21.1484 8.8566 21.1594 8.82042C21.1704 8.78444 21.2113 8.74669 21.2502 8.73653C21.2891 8.72641 21.3469 8.68214 21.3788 8.63817C21.4106 8.59419 21.4574 8.55821 21.4829 8.55821C21.5083 8.55821 21.5571 8.52135 21.5912 8.47629C21.6253 8.43124 21.6711 8.39437 21.6928 8.39437C21.7146 8.39437 21.7657 8.35751 21.8065 8.31245C21.8473 8.2674 21.893 8.23053 21.9081 8.23053C21.9231 8.23053 21.9543 8.21222 21.9774 8.1898C22.0121 8.15615 22.0083 8.13905 21.9555 8.0915C21.9203 8.05985 21.8758 8.03393 21.8565 8.03393C21.8373 8.03393 21.7948 7.99706 21.7622 7.95201C21.7297 7.90695 21.6862 7.87009 21.6657 7.87009C21.6453 7.87009 21.5976 7.83322 21.5599 7.78817C21.5222 7.74311 21.4733 7.70625 21.4512 7.70625C21.4292 7.70625 21.3845 7.66938 21.3519 7.62433C21.3193 7.57927 21.2718 7.54241 21.2464 7.54241C21.2209 7.54241 21.1722 7.50554 21.138 7.46049C21.1039 7.41543 21.0622 7.37857 21.0453 7.37857C21.0285 7.37857 20.9764 7.34171 20.9296 7.29665C20.8828 7.25159 20.8317 7.21473 20.8162 7.21473C20.8006 7.21473 20.755 7.17787 20.7148 7.13281C20.6746 7.08775 20.6261 7.05089 20.6071 7.05089C20.5881 7.05089 20.5396 7.01403 20.4994 6.96897C20.4591 6.92392 20.4166 6.88705 20.4048 6.88705C20.393 6.88705 20.3451 6.85019 20.2983 6.80513C20.2515 6.76008 20.2004 6.72321 20.1849 6.72321C20.1694 6.72321 20.1237 6.68635 20.0835 6.64129C20.0433 6.59624 19.9948 6.55937 19.9758 6.55937C19.9568 6.55937 19.9083 6.52251 19.8681 6.47745C19.8279 6.4324 19.7853 6.39553 19.7735 6.39553C19.7617 6.39553 19.7138 6.35867 19.667 6.31361C19.6202 6.26856 19.5692 6.23169 19.5536 6.23169C19.5381 6.23169 19.4925 6.19483 19.4522 6.14977C19.412 6.10472 19.3636 6.06785 19.3445 6.06785C19.3255 6.06785 19.277 6.03099 19.2368 5.98593C19.1966 5.94088 19.154 5.90402 19.1423 5.90402C19.1304 5.90402 19.0825 5.86715 19.0357 5.8221C18.9889 5.77704 18.9379 5.74018 18.9223 5.74018C18.9068 5.74018 18.8612 5.70331 18.8209 5.65826C18.7807 5.6132 18.7349 5.57634 18.7192 5.57634C18.7034 5.57634 18.6424 5.52489 18.5835 5.46201C18.5247 5.39913 18.4583 5.34752 18.4361 5.34732C18.4138 5.34713 18.3874 5.32484 18.3775 5.29781C18.3674 5.27078 18.3392 5.24866 18.3147 5.24866C18.2902 5.24866 18.2219 5.19705 18.1629 5.13397C18.1039 5.07089 18.0402 5.01928 18.0213 5.01928C18.0023 5.01928 17.956 4.98242 17.9182 4.93736C17.8805 4.89231 17.8304 4.85544 17.807 4.85544C17.7835 4.85544 17.7564 4.83388 17.7466 4.80754C17.7369 4.78119 17.6983 4.7496 17.6608 4.73731C17.6234 4.72503 17.5714 4.69092 17.5454 4.66149C17.5193 4.63206 17.4554 4.58026 17.4033 4.54634C17.3512 4.51243 17.2973 4.46488 17.2834 4.4407C17.2695 4.41648 17.2401 4.39669 17.2181 4.39669C17.196 4.39669 17.1471 4.35983 17.1094 4.31477C17.0716 4.26972 17.0259 4.23285 17.0079 4.23285C16.9898 4.23285 16.9435 4.20353 16.905 4.16771C16.7406 4.01436 16.6038 3.90517 16.5763 3.90517C16.56 3.90517 16.5158 3.86831 16.4781 3.82325C16.4403 3.7782 16.3945 3.74134 16.3763 3.74134C16.358 3.74134 16.3075 3.70447 16.2641 3.65942C16.2207 3.61436 16.1702 3.5775 16.1517 3.5775C16.1333 3.5775 16.0903 3.54063 16.0562 3.49558C16.0221 3.45052 15.9803 3.41366 15.9634 3.41366C15.9465 3.41366 15.8972 3.37679 15.8538 3.33174C15.8104 3.28668 15.7576 3.24982 15.7365 3.24982C15.7153 3.24982 15.6714 3.21295 15.6388 3.1679C15.6062 3.12284 15.561 3.08598 15.5384 3.08598C15.5158 3.08598 15.4752 3.05321 15.4481 3.01313C15.4034 2.94681 15.399 3.08408 15.399 4.55322ZM2.96271 6.42437C2.96271 6.44023 2.87474 6.45979 2.76723 6.46788C2.65751 6.47611 2.56636 6.49941 2.55944 6.52097C2.55266 6.54207 2.5298 6.55937 2.50863 6.55937C2.45452 6.55937 2.14204 6.88309 2.14204 6.93912C2.14204 6.96455 2.13131 6.98535 2.11818 6.98535C2.10505 6.98535 2.0731 7.03326 2.04716 7.09185C2.00584 7.18514 2 7.96636 2 13.3888C2 18.3119 2.00808 19.5819 2.03946 19.5928C2.06117 19.6003 2.07891 19.6273 2.07891 19.6529C2.07891 19.6784 2.09311 19.6993 2.11047 19.6993C2.12783 19.6993 2.14204 19.7204 2.14204 19.7461C2.14204 19.7718 2.1606 19.8124 2.18326 19.8362C2.20592 19.86 2.23402 19.9057 2.24566 19.9376C2.25734 19.9696 2.29203 20.0056 2.32281 20.0177C2.35358 20.0298 2.39755 20.0589 2.42047 20.0825C2.44341 20.106 2.48249 20.1253 2.50727 20.1253C2.53208 20.1253 2.55237 20.14 2.55237 20.158C2.55237 20.1761 2.57251 20.1908 2.5971 20.1908C2.62169 20.1908 2.64773 20.2092 2.65496 20.2318C2.66544 20.2644 4.25933 20.2727 10.4839 20.2727C16.6945 20.2727 18.3079 20.2643 18.3392 20.2318C18.3609 20.2093 18.4098 20.1908 18.4479 20.1908C18.4859 20.1908 18.5253 20.1687 18.5353 20.1417C18.5452 20.1146 18.57 20.0925 18.5902 20.0925C18.6402 20.0925 18.871 19.8569 18.871 19.8058C18.8711 19.7833 18.884 19.7648 18.8998 19.7648C18.9157 19.7648 18.9382 19.7059 18.9499 19.6339C18.9616 19.5619 18.9842 19.4947 19.0001 19.4845C19.0171 19.4736 19.0289 18.2264 19.0289 16.4315V13.3969L18.9075 13.5335C18.8407 13.6086 18.7704 13.67 18.7512 13.67C18.732 13.67 18.668 13.7216 18.609 13.7847C18.55 13.8478 18.4906 13.8994 18.477 13.8994C18.4635 13.8994 18.4055 13.951 18.3482 14.0141C18.2909 14.0771 18.2294 14.1288 18.2116 14.1288C18.1937 14.1288 18.1228 14.1877 18.0541 14.2598C17.9853 14.3319 17.9158 14.3909 17.8995 14.3909C17.8832 14.3909 17.8217 14.4423 17.7628 14.5052C17.704 14.5681 17.643 14.6197 17.6273 14.6199C17.6116 14.6201 17.5447 14.6793 17.4786 14.7513C17.4125 14.8234 17.3435 14.8824 17.3251 14.8824C17.3068 14.8824 17.2423 14.9353 17.1818 14.9999L17.0719 15.1174V16.6875V18.2575H10.5065H3.9412V13.3423V8.42714H5.45628C6.49919 8.42714 6.97136 8.41636 6.97136 8.39254C6.97136 8.3735 7.04238 8.28722 7.12918 8.20081C7.21598 8.11444 7.287 8.03209 7.287 8.01787C7.287 7.98183 7.83281 7.41268 7.86806 7.41193C7.88385 7.4116 7.96591 7.33761 8.05047 7.2475C8.13503 7.15739 8.21824 7.08366 8.23541 7.08366C8.25255 7.08366 8.31489 7.03205 8.37388 6.96897C8.43291 6.90589 8.49667 6.85428 8.51557 6.85428C8.53451 6.85428 8.58085 6.81742 8.6186 6.77236C8.65632 6.72731 8.70395 6.69044 8.72443 6.69044C8.74492 6.69044 8.78835 6.65358 8.82092 6.60852C8.85353 6.56347 8.89712 6.5266 8.91779 6.5266C8.93847 6.5266 8.97442 6.50685 8.99765 6.48273C9.02092 6.45858 9.061 6.43027 9.08673 6.41978C9.11245 6.4093 7.74509 6.39953 6.04811 6.39812C4.29134 6.39665 2.96271 6.40795 2.96271 6.42437Z" fill="black"/>
</svg>
