<svg width="24" height="24" viewBox="0 0 24 24" fill="none" xmlns="http://www.w3.org/2000/svg">
<path fill-rule="evenodd" clip-rule="evenodd" d="M12.8994 5.52979C12.8994 5.0271 13.3069 4.6196 13.8096 4.6196H19.473C19.9757 4.6196 20.3832 5.0271 20.3832 5.52979C20.3832 6.03247 19.9757 6.43997 19.473 6.43997H13.8096C13.3069 6.43997 12.8994 6.03247 12.8994 5.52979Z" fill="black"/>
<path fill-rule="evenodd" clip-rule="evenodd" d="M4 5.52979C4 5.0271 4.4075 4.6196 4.91019 4.6196H10.5736C11.0763 4.6196 11.4838 5.0271 11.4838 5.52979C11.4838 6.03247 11.0763 6.43997 10.5736 6.43997H4.91019C4.4075 6.43997 4 6.03247 4 5.52979Z" fill="black"/>
<path fill-rule="evenodd" clip-rule="evenodd" d="M11.2815 12.0015C11.2815 11.4988 11.689 11.0913 12.1917 11.0913H19.4732C19.9759 11.0913 20.3834 11.4988 20.3834 12.0015C20.3834 12.5042 19.9759 12.9117 19.4732 12.9117H12.1917C11.689 12.9117 11.2815 12.5042 11.2815 12.0015Z" fill="black"/>
<path fill-rule="evenodd" clip-rule="evenodd" d="M4 12.0015C4 11.4988 4.4075 11.0913 4.91019 11.0913H8.95547C9.45815 11.0913 9.86565 11.4988 9.86565 12.0015C9.86565 12.5042 9.45815 12.9117 8.95547 12.9117H4.91019C4.4075 12.9117 4 12.5042 4 12.0015Z" fill="black"/>
<path fill-rule="evenodd" clip-rule="evenodd" d="M14.5174 18.4732C14.5174 17.9705 14.9249 17.563 15.4275 17.563H19.4728C19.9755 17.563 20.383 17.9705 20.383 18.4732C20.383 18.9759 19.9755 19.3834 19.4728 19.3834H15.4275C14.9249 19.3834 14.5174 18.9759 14.5174 18.4732Z" fill="black"/>
<path fill-rule="evenodd" clip-rule="evenodd" d="M4 18.4732C4 17.9705 4.4075 17.563 4.91019 17.563H12.1917C12.6944 17.563 13.1019 17.9705 13.1019 18.4732C13.1019 18.9759 12.6944 19.3834 12.1917 19.3834H4.91019C4.4075 19.3834 4 18.9759 4 18.4732Z" fill="black"/>
<path fill-rule="evenodd" clip-rule="evenodd" d="M13.8096 3C14.3123 3 14.7198 3.4075 14.7198 3.91019V7.14641C14.7198 7.64909 14.3123 8.0566 13.8096 8.0566C13.3069 8.0566 12.8994 7.64909 12.8994 7.14641V3.91019C12.8994 3.4075 13.3069 3 13.8096 3Z" fill="black"/>
<path fill-rule="evenodd" clip-rule="evenodd" d="M8.95584 9.47505C9.45852 9.47505 9.86602 9.88255 9.86602 10.3852V13.6215C9.86602 14.1241 9.45852 14.5316 8.95584 14.5316C8.45315 14.5316 8.04565 14.1241 8.04565 13.6215V10.3852C8.04565 9.88255 8.45315 9.47505 8.95584 9.47505Z" fill="black"/>
<path fill-rule="evenodd" clip-rule="evenodd" d="M15.4275 15.9434C15.9302 15.9434 16.3377 16.3509 16.3377 16.8536V20.0898C16.3377 20.5925 15.9302 21 15.4275 21C14.9249 21 14.5174 20.5925 14.5174 20.0898V16.8536C14.5174 16.3509 14.9249 15.9434 15.4275 15.9434Z" fill="black"/>
</svg>
