<svg width="24" height="24" viewBox="0 0 24 24" fill="none" xmlns="http://www.w3.org/2000/svg">
<path d="M19.3073 18.4955C19.5062 18.6341 19.7762 18.5787 19.9325 18.3639C21.2256 16.5487 22 14.2693 22 11.789C22 9.3087 21.2256 7.02238 19.9325 5.21411C19.7762 4.99241 19.5062 4.93698 19.3073 5.07554C19.1012 5.22104 19.0657 5.48431 19.222 5.70601C20.373 7.3965 21.1261 9.48883 21.1261 11.789C21.1261 14.0892 20.4369 16.2369 19.2149 17.872C19.0586 18.0937 19.0941 18.35 19.3073 18.4955ZM9.80817 17.969C10.2274 17.969 10.5044 17.6711 10.5044 17.2692V6.25334C10.5044 5.85151 10.2274 5.52588 9.80107 5.52588C9.50266 5.52588 9.28952 5.65752 8.99822 5.92772L5.79396 8.92764C5.73712 8.98307 5.66607 9.01078 5.57371 9.01078H3.39254C2.52575 9.01078 2 9.52347 2 10.4103V13.1331C2 14.013 2.52575 14.5326 3.39254 14.5326H5.57371C5.66607 14.5326 5.73712 14.5534 5.79396 14.6088L8.99822 17.5949C9.26821 17.8374 9.50977 17.969 9.80817 17.969ZM16.4725 16.618C16.6856 16.7566 16.9414 16.7011 17.0977 16.4933C18.0497 15.2323 18.5826 13.5696 18.5826 11.789C18.5826 10.0015 18.0568 8.33874 17.0977 7.0778C16.9343 6.86996 16.6856 6.81453 16.4725 6.96002C16.2593 7.09859 16.2309 7.35493 16.3943 7.58357C17.183 8.74058 17.7087 10.1886 17.7087 11.789C17.7087 13.3894 17.2256 14.879 16.3872 15.9944C16.2309 16.2161 16.2593 16.4794 16.4725 16.618ZM13.659 14.7612C13.8508 14.8859 14.1137 14.8513 14.27 14.6434C14.8242 13.9298 15.1723 12.8837 15.1723 11.789C15.1723 10.6874 14.8242 9.64818 14.27 8.93457C14.1137 8.72672 13.8579 8.68516 13.659 8.81679C13.4316 8.96921 13.3961 9.23941 13.5737 9.46805C14.0071 10.0431 14.2984 10.8953 14.2984 11.789C14.2984 12.6897 14 13.5418 13.5595 14.1238C13.3961 14.3455 13.4316 14.6019 13.659 14.7612Z" fill="black"/>
</svg>
