<svg width="24" height="24" viewBox="0 0 24 24" fill="none" xmlns="http://www.w3.org/2000/svg">
<path d="M11.4789 3.26958C11.7333 2.91014 12.2667 2.91014 12.5211 3.26958L15.4235 7.36956C15.5045 7.484 15.6209 7.56859 15.7548 7.61027L20.551 9.10361C20.9715 9.23453 21.1363 9.74179 20.8731 10.0949L17.8706 14.1221C17.7868 14.2345 17.7423 14.3714 17.7441 14.5116L17.8059 19.5345C17.8113 19.9749 17.3799 20.2884 16.9627 20.1471L12.2048 18.5361C12.072 18.4912 11.928 18.4912 11.7952 18.5361L7.03728 20.1471C6.62015 20.2884 6.18865 19.9749 6.19408 19.5345L6.25593 14.5116C6.25765 14.3714 6.21318 14.2345 6.12937 14.1221L3.12694 10.0949C2.86372 9.74179 3.02854 9.23453 3.44902 9.10361L8.2452 7.61027C8.37908 7.56859 8.49551 7.484 8.57652 7.36956L11.4789 3.26958Z" fill="black"/>
</svg>
