<svg width="24" height="24" viewBox="0 0 24 24" fill="none" xmlns="http://www.w3.org/2000/svg">
<path d="M7.39225 4.8C7.39225 4.32261 7.57735 3.86477 7.90684 3.52721C8.23632 3.18964 8.6832 3 9.14915 3H14.4199C14.8858 3 15.3327 3.18964 15.6622 3.52721C15.9917 3.86477 16.1768 4.32261 16.1768 4.8V6.6H19.6906C19.9235 6.6 20.147 6.69482 20.3117 6.8636C20.4765 7.03239 20.569 7.2613 20.569 7.5C20.569 7.73869 20.4765 7.96761 20.3117 8.1364C20.147 8.30518 19.9235 8.4 19.6906 8.4H18.7515L17.9899 19.3278C17.9583 19.7819 17.76 20.2069 17.4348 20.5172C17.1096 20.8275 16.6817 21 16.2374 21H7.33076C6.88639 21 6.45852 20.8275 6.13333 20.5172C5.80815 20.2069 5.6098 19.7819 5.57825 19.3278L4.81839 8.4H3.87845C3.64547 8.4 3.42203 8.30518 3.25729 8.1364C3.09255 7.96761 3 7.73869 3 7.5C3 7.2613 3.09255 7.03239 3.25729 6.8636C3.42203 6.69482 3.64547 6.6 3.87845 6.6H7.39225V4.8ZM9.14915 6.6H14.4199V4.8H9.14915V6.6ZM6.57881 8.4L7.33164 19.2H16.2383L16.9911 8.4H6.57881ZM10.0276 10.2C10.2606 10.2 10.484 10.2948 10.6488 10.4636C10.8135 10.6324 10.9061 10.8613 10.9061 11.1V16.5C10.9061 16.7387 10.8135 16.9676 10.6488 17.1364C10.484 17.3052 10.2606 17.4 10.0276 17.4C9.79463 17.4 9.57119 17.3052 9.40645 17.1364C9.24171 16.9676 9.14915 16.7387 9.14915 16.5V11.1C9.14915 10.8613 9.24171 10.6324 9.40645 10.4636C9.57119 10.2948 9.79463 10.2 10.0276 10.2ZM13.5414 10.2C13.7744 10.2 13.9978 10.2948 14.1626 10.4636C14.3273 10.6324 14.4199 10.8613 14.4199 11.1V16.5C14.4199 16.7387 14.3273 16.9676 14.1626 17.1364C13.9978 17.3052 13.7744 17.4 13.5414 17.4C13.3084 17.4 13.085 17.3052 12.9202 17.1364C12.7555 16.9676 12.663 16.7387 12.663 16.5V11.1C12.663 10.8613 12.7555 10.6324 12.9202 10.4636C13.085 10.2948 13.3084 10.2 13.5414 10.2Z" fill="black"/>
</svg>
