<svg width="24" height="24" viewBox="0 0 24 24" fill="none" xmlns="http://www.w3.org/2000/svg">
<path d="M8.66262 19.7273C15.4534 19.7273 19.1687 14.0607 19.1687 9.1481C19.1687 8.9888 19.1652 8.82595 19.1582 8.66665C19.8809 8.14034 20.5046 7.48843 21 6.74155C20.3269 7.04311 19.6122 7.24006 18.8804 7.32567C19.651 6.86058 20.2279 6.12996 20.5043 5.26923C19.7794 5.70182 18.9867 6.00696 18.1601 6.1716C17.6031 5.5757 16.8667 5.18114 16.0648 5.04893C15.2628 4.91671 14.4399 5.05421 13.7233 5.44016C13.0067 5.82611 12.4363 6.43902 12.1004 7.18412C11.7644 7.92922 11.6816 8.76502 11.8646 9.56229C10.3969 9.48812 8.96095 9.10418 7.64999 8.43535C6.33902 7.76653 5.18227 6.82775 4.25473 5.67988C3.7833 6.49833 3.63904 7.46682 3.85127 8.38853C4.0635 9.31023 4.6163 10.116 5.3973 10.642C4.81097 10.6233 4.23748 10.4643 3.72422 10.1783V10.2243C3.72369 11.0832 4.01857 11.9158 4.55873 12.5805C5.09889 13.2452 5.85099 13.7011 6.68719 13.8706C6.14404 14.0202 5.57399 14.042 5.02113 13.9343C5.25709 14.6729 5.71618 15.319 6.33433 15.7823C6.95248 16.2456 7.69884 16.503 8.46926 16.5185C7.16132 17.5531 5.54563 18.1142 3.88242 18.1116C3.58747 18.1111 3.2928 18.0929 3 18.0571C4.68964 19.1486 6.65515 19.7283 8.66262 19.7273Z" fill="black"/>
</svg>
