<svg width="24" height="24" viewBox="0 0 24 24" fill="none" xmlns="http://www.w3.org/2000/svg">
<path d="M21.1814 16.5394V19.2697C21.1814 20.8169 19.9996 22 18.4542 22H5.72721C4.18179 22 3 20.8169 3 19.2697V16.5394C3 15.9933 3.36363 15.6293 3.90907 15.6293C4.45451 15.6293 4.81814 15.9933 4.81814 16.5394V19.2697C4.81814 19.8157 5.18177 20.1798 5.72721 20.1798H18.4542C18.9997 20.1798 19.3633 19.8157 19.3633 19.2697V16.5394C19.3633 15.9933 19.7269 15.6293 20.2724 15.6293C20.8178 15.6293 21.1814 15.9933 21.1814 16.5394Z" fill="black"/>
<path d="M9.09068 7.16485L11.1815 5.07161V15.6288C11.1815 16.1749 11.5452 16.5389 12.0906 16.5389C12.6361 16.5389 12.9997 16.1749 12.9997 15.6288V5.07161L15.0905 7.16485C15.2724 7.34687 15.4542 7.43788 15.7269 7.43788C15.9996 7.43788 16.1814 7.34687 16.3632 7.16485C16.7269 6.80081 16.7269 6.25474 16.3632 5.8907L12.727 2.25028C12.6361 2.15927 12.5451 2.06826 12.4542 2.06826C12.2724 1.97725 11.9997 1.97725 11.727 2.06826C11.6361 2.15927 11.5452 2.15927 11.4543 2.25028L7.81798 5.8907C7.45435 6.25474 7.45435 6.80081 7.81798 7.16485C8.18161 7.52889 8.72705 7.52889 9.09068 7.16485Z" fill="black"/>
</svg>
