<svg width="24" height="24" viewBox="0 0 24 24" fill="none" xmlns="http://www.w3.org/2000/svg">
<path d="M11.1083 4.80193C10.6274 4.80189 10.1513 4.89813 9.70812 5.08499C9.26495 5.27184 8.86368 5.54552 8.52795 5.8899C8.19222 6.23427 7.92884 6.64237 7.75331 7.09014C7.57778 7.53791 7.49367 8.01629 7.50594 8.49708C7.51075 8.70043 7.44661 8.89943 7.32394 9.06168C7.20126 9.22394 7.02729 9.3399 6.83032 9.39069C6.19528 9.55704 5.64242 9.94871 5.27488 10.4927C4.90734 11.0366 4.75021 11.6957 4.8328 12.3469C4.9154 12.9982 5.23207 13.5972 5.72376 14.0321C6.21544 14.4671 6.84857 14.7084 7.50504 14.7109H8.40585C8.64477 14.7109 8.87389 14.8058 9.04283 14.9748C9.21176 15.1437 9.30667 15.3728 9.30667 15.6117C9.30667 15.8507 9.21176 16.0798 9.04283 16.2487C8.87389 16.4177 8.64477 16.5126 8.40585 16.5126H7.50504C6.46757 16.5128 5.46184 16.1548 4.65778 15.4992C3.85373 14.8436 3.30066 13.9305 3.09202 12.9142C2.88339 11.898 3.03198 10.8408 3.5127 9.92146C3.99342 9.00209 4.77679 8.27685 5.73043 7.86831C5.84402 6.72974 6.31603 5.65659 7.07847 4.80341C7.84091 3.95022 8.85445 3.36101 9.97314 3.12062C11.0918 2.88024 12.2579 3.00108 13.3036 3.46575C14.3492 3.93042 15.2204 4.71494 15.7917 5.70635C17.2057 5.75781 18.5431 6.36171 19.5168 7.38837C20.4905 8.41503 21.0227 9.78257 20.9993 11.1973C20.9758 12.6121 20.3985 13.9612 19.3913 14.955C18.3841 15.9488 17.0273 16.508 15.6124 16.5126C15.3735 16.5126 15.1444 16.4177 14.9754 16.2487C14.8065 16.0798 14.7116 15.8507 14.7116 15.6117C14.7116 15.3728 14.8065 15.1437 14.9754 14.9748C15.1444 14.8058 15.3735 14.7109 15.6124 14.7109C16.0976 14.7102 16.5776 14.6115 17.0238 14.4208C17.4699 14.23 17.8729 13.9511 18.2086 13.6008C18.5443 13.2505 18.8058 12.8361 18.9775 12.3822C19.1491 11.9284 19.2273 11.4446 19.2074 10.9598C19.1875 10.475 19.0699 9.99925 18.8616 9.56102C18.6533 9.1228 18.3587 8.73115 17.9954 8.40956C17.6321 8.08797 17.2076 7.84306 16.7473 7.68953C16.2871 7.536 15.8005 7.47701 15.3169 7.51609C15.1293 7.53135 14.9415 7.48742 14.7801 7.39048C14.6187 7.29353 14.4917 7.14844 14.417 6.9756C14.1378 6.32992 13.6758 5.78006 13.0878 5.39381C12.4999 5.00757 11.8118 4.80181 11.1083 4.80193ZM11.3722 9.56995C11.5412 9.40108 11.7703 9.30621 12.0091 9.30621C12.248 9.30621 12.4771 9.40108 12.646 9.56995L14.4476 11.3716C14.6117 11.5415 14.7025 11.769 14.7005 12.0052C14.6984 12.2414 14.6037 12.4674 14.4367 12.6344C14.2696 12.8014 14.0437 12.8961 13.8075 12.8982C13.5713 12.9002 13.3438 12.8094 13.1739 12.6453L12.9099 12.3814V19.215C12.9099 19.4539 12.815 19.683 12.6461 19.852C12.4772 20.0209 12.248 20.1158 12.0091 20.1158C11.7702 20.1158 11.5411 20.0209 11.3722 19.852C11.2032 19.683 11.1083 19.4539 11.1083 19.215V12.3814L10.8444 12.6453C10.6745 12.8094 10.4469 12.9002 10.2107 12.8982C9.97454 12.8961 9.7486 12.8014 9.58159 12.6344C9.41457 12.4674 9.31983 12.2414 9.31778 12.0052C9.31572 11.769 9.40652 11.5415 9.57061 11.3716L11.3722 9.56995Z" fill="black"/>
</svg>
