<svg width="24" height="24" viewBox="0 0 24 24" fill="none" xmlns="http://www.w3.org/2000/svg">
<path d="M5.34662 8.16667C5.34662 5.83333 7.18726 4 9.5299 4C11.8725 4 13.7132 5.83333 13.7132 8.16667C13.7132 10.5 11.8725 12.3333 9.5299 12.3333C7.18726 12.3333 5.34662 10.5 5.34662 8.16667Z" fill="black"/>
<path d="M17.0598 18.1667V19.8333C17.0598 20.3333 16.7251 20.6667 16.2231 20.6667C16.2041 20.6667 16.1854 20.6662 16.1669 20.6652V20.6664H2.85957C2.85197 20.6666 2.84433 20.6667 2.83666 20.6667C2.33466 20.6667 2 20.3333 2 19.8333V18.1667C2 15.8333 3.84064 14 6.18328 14H12.8765C15.2192 14 17.0598 15.8333 17.0598 18.1667Z" fill="black"/>
<path d="M18.9004 14.1667C18.4821 14.0833 17.9801 14.3333 17.8964 14.75C17.8128 15.1667 18.0638 15.6667 18.4821 15.75C19.5698 16 20.3227 17 20.3227 18.1667V19.8333C20.3227 20.3333 20.6574 20.6667 21.1594 20.6667C21.6614 20.6667 21.9961 20.3333 21.9961 19.8333V18.1667C22.0797 16.25 20.8247 14.5833 18.9004 14.1667Z" fill="black"/>
<path d="M14.5498 4.75C14.7172 4.25 15.1355 4 15.5538 4.16667C17.8128 4.66667 19.1514 7 18.5658 9.33333C18.2311 10.8333 17.0598 11.9167 15.5538 12.3333H15.3865C14.9682 12.3333 14.6335 12.0833 14.5498 11.6667C14.3825 11.25 14.7172 10.75 15.1355 10.6667C16.0558 10.4167 16.7251 9.75 16.9761 8.83333C17.3108 7.41667 16.4741 6.08333 15.1355 5.75C14.7172 5.66667 14.4662 5.16667 14.5498 4.75Z" fill="black"/>
</svg>
