<svg width="24" height="24" viewBox="0 0 24 24" fill="none" xmlns="http://www.w3.org/2000/svg">
<path d="M17.2793 19.8637C17.4656 20.0493 17.7607 20.0416 17.9392 19.8637C18.1178 19.6858 18.1178 19.3919 17.9392 19.2141L2.79101 4.13341C2.62019 3.95553 2.31738 3.95553 2.13104 4.13341C1.96022 4.31128 1.95246 4.60516 2.13104 4.78303L17.2793 19.8637ZM14.0881 5.74201H5.59394L16.3087 16.4067C16.4563 16.1438 16.5417 15.7339 16.5417 15.3008V8.20905C16.5417 6.63138 15.6721 5.74201 14.0881 5.74201ZM17.287 14.1717L20.2453 16.6233C20.517 16.8476 20.8043 16.9945 21.0916 16.9945C21.6351 16.9945 22 16.6001 22 15.9968V7.9925C22 7.38928 21.6351 6.99486 21.0916 6.99486C20.8043 6.99486 20.517 7.1418 20.2453 7.36608L17.287 9.80992V14.1717ZM5.57064 18.2473H14.4919L3.29569 7.10313C3.14817 7.36608 3.06276 7.77596 3.06276 8.20905V15.7803C3.06276 17.358 3.97895 18.2473 5.57064 18.2473Z" fill="black"/>
</svg>
