<svg width="24" height="24" viewBox="0 0 24 24" fill="none" xmlns="http://www.w3.org/2000/svg">
<path d="M13.6439 12.0019L18.6571 6.99896C18.8767 6.77936 19 6.48152 19 6.17096C19 5.8604 18.8767 5.56257 18.6571 5.34297C18.4376 5.12337 18.1398 5 17.8294 5C17.5189 5 17.2211 5.12337 17.0016 5.34297L12 10.3576L6.99841 5.34297C6.77887 5.12337 6.48112 5 6.17064 5C5.86017 5 5.56241 5.12337 5.34287 5.34297C5.12334 5.56257 5 5.8604 5 6.17096C5 6.48152 5.12334 6.77936 5.34287 6.99896L10.3561 12.0019L5.34287 17.0049C5.12573 17.2234 5.00385 17.519 5.00385 17.8271C5.00385 18.1351 5.12573 18.4307 5.34287 18.6492C5.56131 18.8664 5.85681 18.9883 6.16481 18.9883C6.47282 18.9883 6.76831 18.8664 6.98675 18.6492L12 13.6463L17.0016 18.6609C17.22 18.8781 17.5155 19 17.8235 19C18.1315 19 18.427 18.8781 18.6455 18.6609C18.7547 18.5525 18.8415 18.4235 18.9007 18.2814C18.9599 18.1393 18.9903 17.9868 18.9903 17.8329C18.9903 17.6789 18.9599 17.5265 18.9007 17.3844C18.8415 17.2423 18.7547 17.1133 18.6455 17.0049L13.6439 12.0019Z" fill="black"/>
</svg>
