<svg xmlns="http://www.w3.org/2000/svg" width="60" height="20" viewBox="0 0 60 20" fill="none">
  <path fill-rule="evenodd" clip-rule="evenodd" d="M45.5964 4.11765V6.23529H44.7831H43.9698V7.76471V9.29412H44.7831H45.5964V11.6842C45.5964 12.9988 45.6519 14.3786 45.7197 14.7504C45.9837 16.196 46.6564 17.1766 47.7177 17.6624C48.244 17.9033 48.5004 17.9402 49.6048 17.9345C50.6522 17.9291 51.0048 17.8792 51.5589 17.6584C51.9307 17.5101 52.2568 17.3278 52.2835 17.2532C52.3739 17.0015 51.4376 14.1751 51.2711 14.1966C51.1853 14.2076 50.9511 14.2684 50.7506 14.3316C50.2564 14.4874 49.8745 14.2806 49.6984 13.7616C49.6132 13.5105 49.5572 12.5725 49.5532 11.3276L49.5467 9.30235L50.7376 9.26882L51.9285 9.23529L51.961 7.73529L51.9935 6.23529H50.7701H49.5467V4.11765V2H47.5715H45.5964V4.11765ZM19.106 6.00365C17.6484 6.31377 16.0707 7.57635 15.3919 8.97612C13.592 12.6878 15.5008 17.1504 19.2038 17.8881C20.7708 18.2002 22.4813 17.7839 23.5556 16.8287L23.9858 16.4462V17.0466V17.6471H25.961H27.9361V11.9412V6.23529H25.961H23.9858V6.76388V7.29259L23.4669 6.89153C22.7013 6.29977 21.7726 5.98871 20.6164 5.93682C20.0733 5.91247 19.3936 5.94259 19.106 6.00365ZM36.6418 6.04318C36.0285 6.21071 35.1803 6.68835 34.8601 7.04659C34.5323 7.41329 34.4425 7.35271 34.4425 6.76471V6.23529H32.4674H30.4922V11.9412V17.6471H32.4674H34.4425V14.1351C34.4425 10.6866 34.4473 10.616 34.7039 10.2342C34.8478 10.0204 35.1633 9.684 35.4054 9.48682C35.7668 9.19235 35.9744 9.12024 36.5672 9.08318C37.1792 9.04506 37.3507 9.08059 37.694 9.31671C37.9166 9.46988 38.2164 9.80541 38.3601 10.0624C38.615 10.5179 38.6215 10.6169 38.6234 14.0882L38.6252 17.6471H40.6057H42.5861L42.5518 13.2647L42.5174 8.88235L42.1761 8.25835C41.5587 7.12988 40.4564 6.36671 38.989 6.05176C38.0585 5.85212 37.3515 5.84953 36.6418 6.04318ZM2.95621 7.76224V9.28918L5.22833 9.32106L7.50058 9.35294L4.95716 13.1765C3.5584 15.2794 2.32079 17.1456 2.20693 17.3235L2 17.6471H7.82264H13.6453V16.12V14.5928L11.1408 14.5612L8.63629 14.5294L11.1796 10.7059C12.5784 8.60294 13.816 6.73671 13.9298 6.55882L14.1368 6.23529H8.54648H2.95621V7.76224ZM22.3011 9.42412C22.6012 9.50729 22.9577 9.75306 23.3072 10.1179C23.7464 10.5762 23.8744 10.8093 23.9859 11.3536C24.2454 12.6188 23.7462 13.7481 22.6928 14.2796C21.1338 15.0662 19.3425 14.2888 18.9848 12.6702C18.5085 10.5151 20.2137 8.84588 22.3011 9.42412ZM55.6464 12.9335C54.1807 13.2948 53.3585 14.6999 53.7713 16.1376C54.0701 17.1785 55.1075 18 56.123 18C57.9914 18 59.2603 16.0861 58.5062 14.4052C58.2268 13.7822 57.4482 13.1166 56.8082 12.9534C56.2459 12.8101 56.1537 12.8085 55.6464 12.9335Z" fill="black"/>
</svg>